<?xml version="1.0" encoding="UTF-8" standalone="no"?>
<svg
   xmlns:dc="http://purl.org/dc/elements/1.1/"
   xmlns:cc="http://creativecommons.org/ns#"
   xmlns:rdf="http://www.w3.org/1999/02/22-rdf-syntax-ns#"
   xmlns:svg="http://www.w3.org/2000/svg"
   xmlns="http://www.w3.org/2000/svg"
   xmlns:sodipodi="http://sodipodi.sourceforge.net/DTD/sodipodi-0.dtd"
   xmlns:inkscape="http://www.inkscape.org/namespaces/inkscape"
   version="1.1"
   width="22"
   height="22"
   id="svg443"
   sodipodi:docname="cave20.svg"
   inkscape:version="1.0.1 (3bc2e813f5, 2020-09-07)">
  <metadata
     id="metadata447">
    <rdf:RDF>
      <cc:Work
         rdf:about="">
        <dc:format>image/svg+xml</dc:format>
        <dc:type
           rdf:resource="http://purl.org/dc/dcmitype/StillImage" />
      </cc:Work>
    </rdf:RDF>
  </metadata>
  <sodipodi:namedview
     pagecolor="#ffffff"
     bordercolor="#666666"
     borderopacity="1"
     objecttolerance="10"
     gridtolerance="10"
     guidetolerance="10"
     inkscape:pageopacity="0"
     inkscape:pageshadow="2"
     inkscape:window-width="2560"
     inkscape:window-height="1377"
     id="namedview445"
     showgrid="false"
     inkscape:zoom="45.818182"
     inkscape:cx="11"
     inkscape:cy="11"
     inkscape:window-x="-8"
     inkscape:window-y="-8"
     inkscape:window-maximized="1"
     inkscape:current-layer="svg443" />
  <defs
     id="defs5">
    <pattern
       id="pattern_XDotV"
       patternUnits="userSpaceOnUse"
       width="0.4"
       height="0.4"
       patternTransform="rotate(45)">
      <line
         x1="0"
         y1="0"
         x2="0"
         y2="1"
         stroke="#FF0000"
         stroke-width="0.5"
         id="line2" />
    </pattern>
  </defs>
  <rect
     x="14"
     y="8"
     width="1"
     height="1"
     fill="#FFFF00"
     stroke="black"
     stroke-width="0.05"
     id="rect9" />
  <rect
     x="15"
     y="3"
     width="1"
     height="1"
     fill="#FFFF00"
     stroke="black"
     stroke-width="0.05"
     id="rect11" />
  <rect
     x="5"
     y="18"
     width="1"
     height="1"
     fill="#FFFF00"
     stroke="black"
     stroke-width="0.05"
     id="rect13" />
  <rect
     x="1"
     y="1"
     width="1"
     height="1"
     fill="#808080"
     stroke="black"
     stroke-width="0.05"
     id="rect15" />
  <rect
     x="1"
     y="2"
     width="1"
     height="1"
     fill="#808080"
     stroke="black"
     stroke-width="0.05"
     id="rect17" />
  <rect
     x="1"
     y="3"
     width="1"
     height="1"
     fill="#808080"
     stroke="black"
     stroke-width="0.05"
     id="rect19" />
  <rect
     x="1"
     y="4"
     width="1"
     height="1"
     fill="#808080"
     stroke="black"
     stroke-width="0.05"
     id="rect21" />
  <rect
     x="1"
     y="5"
     width="1"
     height="1"
     fill="#808080"
     stroke="black"
     stroke-width="0.05"
     id="rect23" />
  <rect
     x="1"
     y="6"
     width="1"
     height="1"
     fill="#808080"
     stroke="black"
     stroke-width="0.05"
     id="rect25" />
  <rect
     x="1"
     y="7"
     width="1"
     height="1"
     fill="#808080"
     stroke="black"
     stroke-width="0.05"
     id="rect27" />
  <rect
     x="1"
     y="8"
     width="1"
     height="1"
     fill="#808080"
     stroke="black"
     stroke-width="0.05"
     id="rect29" />
  <rect
     x="1"
     y="9"
     width="1"
     height="1"
     fill="#808080"
     stroke="black"
     stroke-width="0.05"
     id="rect31" />
  <rect
     x="1"
     y="10"
     width="1"
     height="1"
     fill="#808080"
     stroke="black"
     stroke-width="0.05"
     id="rect33" />
  <rect
     x="1"
     y="11"
     width="1"
     height="1"
     fill="#808080"
     stroke="black"
     stroke-width="0.05"
     id="rect35" />
  <rect
     x="1"
     y="12"
     width="1"
     height="1"
     fill="#808080"
     stroke="black"
     stroke-width="0.05"
     id="rect37" />
  <rect
     x="1"
     y="13"
     width="1"
     height="1"
     fill="#808080"
     stroke="black"
     stroke-width="0.05"
     id="rect39" />
  <rect
     x="1"
     y="14"
     width="1"
     height="1"
     fill="#808080"
     stroke="black"
     stroke-width="0.05"
     id="rect41" />
  <rect
     x="1"
     y="15"
     width="1"
     height="1"
     fill="#808080"
     stroke="black"
     stroke-width="0.05"
     id="rect43" />
  <rect
     x="1"
     y="16"
     width="1"
     height="1"
     fill="#808080"
     stroke="black"
     stroke-width="0.05"
     id="rect45" />
  <rect
     x="1"
     y="17"
     width="1"
     height="1"
     fill="#808080"
     stroke="black"
     stroke-width="0.05"
     id="rect47" />
  <rect
     x="1"
     y="18"
     width="1"
     height="1"
     fill="#808080"
     stroke="black"
     stroke-width="0.05"
     id="rect49" />
  <rect
     x="1"
     y="19"
     width="1"
     height="1"
     fill="#808080"
     stroke="black"
     stroke-width="0.05"
     id="rect51" />
  <rect
     x="1"
     y="20"
     width="1"
     height="1"
     fill="#808080"
     stroke="black"
     stroke-width="0.05"
     id="rect53" />
  <rect
     x="2"
     y="1"
     width="1"
     height="1"
     fill="#808080"
     stroke="black"
     stroke-width="0.05"
     id="rect55" />
  <rect
     x="2"
     y="2"
     width="1"
     height="1"
     fill="#808080"
     stroke="black"
     stroke-width="0.05"
     id="rect57" />
  <rect
     x="2"
     y="3"
     width="1"
     height="1"
     fill="#808080"
     stroke="black"
     stroke-width="0.05"
     id="rect59" />
  <rect
     x="2"
     y="4"
     width="1"
     height="1"
     fill="#808080"
     stroke="black"
     stroke-width="0.05"
     id="rect61" />
  <rect
     x="2"
     y="5"
     width="1"
     height="1"
     fill="#808080"
     stroke="black"
     stroke-width="0.05"
     id="rect63" />
  <rect
     x="2"
     y="6"
     width="1"
     height="1"
     fill="#808080"
     stroke="black"
     stroke-width="0.05"
     id="rect65" />
  <rect
     x="2"
     y="7"
     width="1"
     height="1"
     fill="#808080"
     stroke="black"
     stroke-width="0.05"
     id="rect67" />
  <rect
     x="2"
     y="8"
     width="1"
     height="1"
     fill="#808080"
     stroke="black"
     stroke-width="0.05"
     id="rect69" />
  <rect
     x="2"
     y="9"
     width="1"
     height="1"
     fill="#808080"
     stroke="black"
     stroke-width="0.05"
     id="rect71" />
  <rect
     x="2"
     y="10"
     width="1"
     height="1"
     fill="#808080"
     stroke="black"
     stroke-width="0.05"
     id="rect73" />
  <rect
     x="2"
     y="11"
     width="1"
     height="1"
     fill="#808080"
     stroke="black"
     stroke-width="0.05"
     id="rect75" />
  <rect
     x="2"
     y="12"
     width="1"
     height="1"
     fill="#808080"
     stroke="black"
     stroke-width="0.05"
     id="rect77" />
  <rect
     x="2"
     y="13"
     width="1"
     height="1"
     fill="#808080"
     stroke="black"
     stroke-width="0.05"
     id="rect79" />
  <rect
     x="2"
     y="14"
     width="1"
     height="1"
     fill="#808080"
     stroke="black"
     stroke-width="0.05"
     id="rect81" />
  <rect
     x="2"
     y="15"
     width="1"
     height="1"
     fill="#808080"
     stroke="black"
     stroke-width="0.05"
     id="rect83" />
  <rect
     x="2"
     y="16"
     width="1"
     height="1"
     fill="#808080"
     stroke="black"
     stroke-width="0.05"
     id="rect85" />
  <rect
     x="2"
     y="17"
     width="1"
     height="1"
     fill="#808080"
     stroke="black"
     stroke-width="0.05"
     id="rect87" />
  <rect
     x="2"
     y="18"
     width="1"
     height="1"
     fill="#808080"
     stroke="black"
     stroke-width="0.05"
     id="rect89" />
  <rect
     x="2"
     y="19"
     width="1"
     height="1"
     fill="#808080"
     stroke="black"
     stroke-width="0.05"
     id="rect91" />
  <rect
     x="2"
     y="20"
     width="1"
     height="1"
     fill="#808080"
     stroke="black"
     stroke-width="0.05"
     id="rect93" />
  <rect
     x="3"
     y="1"
     width="1"
     height="1"
     fill="#808080"
     stroke="black"
     stroke-width="0.05"
     id="rect95" />
  <rect
     x="3"
     y="2"
     width="1"
     height="1"
     fill="#808080"
     stroke="black"
     stroke-width="0.05"
     id="rect97" />
  <rect
     x="3"
     y="3"
     width="1"
     height="1"
     fill="#808080"
     stroke="black"
     stroke-width="0.05"
     id="rect99" />
  <rect
     x="3"
     y="4"
     width="1"
     height="1"
     fill="#808080"
     stroke="black"
     stroke-width="0.05"
     id="rect101" />
  <rect
     x="3"
     y="5"
     width="1"
     height="1"
     fill="#808080"
     stroke="black"
     stroke-width="0.05"
     id="rect103" />
  <rect
     x="3"
     y="6"
     width="1"
     height="1"
     fill="#808080"
     stroke="black"
     stroke-width="0.05"
     id="rect105" />
  <rect
     x="3"
     y="7"
     width="1"
     height="1"
     fill="#808080"
     stroke="black"
     stroke-width="0.05"
     id="rect107" />
  <rect
     x="3"
     y="8"
     width="1"
     height="1"
     fill="#808080"
     stroke="black"
     stroke-width="0.05"
     id="rect109" />
  <rect
     x="3"
     y="9"
     width="1"
     height="1"
     fill="#808080"
     stroke="black"
     stroke-width="0.05"
     id="rect111" />
  <rect
     x="3"
     y="10"
     width="1"
     height="1"
     fill="#808080"
     stroke="black"
     stroke-width="0.05"
     id="rect113" />
  <rect
     x="3"
     y="11"
     width="1"
     height="1"
     fill="#808080"
     stroke="black"
     stroke-width="0.05"
     id="rect115" />
  <rect
     x="3"
     y="12"
     width="1"
     height="1"
     fill="#808080"
     stroke="black"
     stroke-width="0.05"
     id="rect117" />
  <rect
     x="3"
     y="13"
     width="1"
     height="1"
     fill="#808080"
     stroke="black"
     stroke-width="0.05"
     id="rect119" />
  <rect
     x="3"
     y="14"
     width="1"
     height="1"
     fill="#808080"
     stroke="black"
     stroke-width="0.05"
     id="rect121" />
  <rect
     x="3"
     y="15"
     width="1"
     height="1"
     fill="#808080"
     stroke="black"
     stroke-width="0.05"
     id="rect123" />
  <rect
     x="3"
     y="18"
     width="1"
     height="1"
     fill="#808080"
     stroke="black"
     stroke-width="0.05"
     id="rect125" />
  <rect
     x="3"
     y="19"
     width="1"
     height="1"
     fill="#808080"
     stroke="black"
     stroke-width="0.05"
     id="rect127" />
  <rect
     x="3"
     y="20"
     width="1"
     height="1"
     fill="#808080"
     stroke="black"
     stroke-width="0.05"
     id="rect129" />
  <rect
     x="4"
     y="1"
     width="1"
     height="1"
     fill="#808080"
     stroke="black"
     stroke-width="0.05"
     id="rect131" />
  <rect
     x="4"
     y="2"
     width="1"
     height="1"
     fill="#808080"
     stroke="black"
     stroke-width="0.05"
     id="rect133" />
  <rect
     x="4"
     y="3"
     width="1"
     height="1"
     fill="#808080"
     stroke="black"
     stroke-width="0.05"
     id="rect135" />
  <rect
     x="4"
     y="7"
     width="1"
     height="1"
     fill="#808080"
     stroke="black"
     stroke-width="0.05"
     id="rect137" />
  <rect
     x="4"
     y="8"
     width="1"
     height="1"
     fill="#808080"
     stroke="black"
     stroke-width="0.05"
     id="rect139" />
  <rect
     x="4"
     y="9"
     width="1"
     height="1"
     fill="#808080"
     stroke="black"
     stroke-width="0.05"
     id="rect141" />
  <rect
     x="4"
     y="10"
     width="1"
     height="1"
     fill="#808080"
     stroke="black"
     stroke-width="0.05"
     id="rect143" />
  <rect
     x="4"
     y="11"
     width="1"
     height="1"
     fill="#808080"
     stroke="black"
     stroke-width="0.05"
     id="rect145" />
  <rect
     x="4"
     y="12"
     width="1"
     height="1"
     fill="#808080"
     stroke="black"
     stroke-width="0.05"
     id="rect147" />
  <rect
     x="4"
     y="13"
     width="1"
     height="1"
     fill="#808080"
     stroke="black"
     stroke-width="0.05"
     id="rect149" />
  <rect
     x="4"
     y="14"
     width="1"
     height="1"
     fill="#808080"
     stroke="black"
     stroke-width="0.05"
     id="rect151" />
  <rect
     x="4"
     y="19"
     width="1"
     height="1"
     fill="#808080"
     stroke="black"
     stroke-width="0.05"
     id="rect153" />
  <rect
     x="4"
     y="20"
     width="1"
     height="1"
     fill="#808080"
     stroke="black"
     stroke-width="0.05"
     id="rect155" />
  <rect
     x="5"
     y="1"
     width="1"
     height="1"
     fill="#808080"
     stroke="black"
     stroke-width="0.05"
     id="rect157" />
  <rect
     x="5"
     y="2"
     width="1"
     height="1"
     fill="#808080"
     stroke="black"
     stroke-width="0.05"
     id="rect159" />
  <rect
     x="5"
     y="3"
     width="1"
     height="1"
     fill="#808080"
     stroke="black"
     stroke-width="0.05"
     id="rect161" />
  <rect
     x="5"
     y="4"
     width="1"
     height="1"
     fill="#808080"
     stroke="black"
     stroke-width="0.05"
     id="rect163" />
  <rect
     x="5"
     y="8"
     width="1"
     height="1"
     fill="#808080"
     stroke="black"
     stroke-width="0.05"
     id="rect165" />
  <rect
     x="5"
     y="9"
     width="1"
     height="1"
     fill="#808080"
     stroke="black"
     stroke-width="0.05"
     id="rect167" />
  <rect
     x="5"
     y="10"
     width="1"
     height="1"
     fill="#808080"
     stroke="black"
     stroke-width="0.05"
     id="rect169" />
  <rect
     x="5"
     y="11"
     width="1"
     height="1"
     fill="#808080"
     stroke="black"
     stroke-width="0.05"
     id="rect171" />
  <rect
     x="5"
     y="12"
     width="1"
     height="1"
     fill="#808080"
     stroke="black"
     stroke-width="0.05"
     id="rect173" />
  <rect
     x="5"
     y="13"
     width="1"
     height="1"
     fill="#808080"
     stroke="black"
     stroke-width="0.05"
     id="rect175" />
  <rect
     x="5"
     y="14"
     width="1"
     height="1"
     fill="#808080"
     stroke="black"
     stroke-width="0.05"
     id="rect177" />
  <rect
     x="5"
     y="20"
     width="1"
     height="1"
     fill="#808080"
     stroke="black"
     stroke-width="0.05"
     id="rect179" />
  <rect
     x="6"
     y="1"
     width="1"
     height="1"
     fill="#808080"
     stroke="black"
     stroke-width="0.05"
     id="rect181" />
  <rect
     x="6"
     y="2"
     width="1"
     height="1"
     fill="#808080"
     stroke="black"
     stroke-width="0.05"
     id="rect183" />
  <rect
     x="6"
     y="3"
     width="1"
     height="1"
     fill="#808080"
     stroke="black"
     stroke-width="0.05"
     id="rect185" />
  <rect
     x="6"
     y="8"
     width="1"
     height="1"
     fill="#808080"
     stroke="black"
     stroke-width="0.05"
     id="rect187" />
  <rect
     x="6"
     y="9"
     width="1"
     height="1"
     fill="#808080"
     stroke="black"
     stroke-width="0.05"
     id="rect189" />
  <rect
     x="6"
     y="10"
     width="1"
     height="1"
     fill="#808080"
     stroke="black"
     stroke-width="0.05"
     id="rect191" />
  <rect
     x="6"
     y="11"
     width="1"
     height="1"
     fill="#808080"
     stroke="black"
     stroke-width="0.05"
     id="rect193" />
  <rect
     x="6"
     y="12"
     width="1"
     height="1"
     fill="#808080"
     stroke="black"
     stroke-width="0.05"
     id="rect195" />
  <rect
     x="6"
     y="13"
     width="1"
     height="1"
     fill="#808080"
     stroke="black"
     stroke-width="0.05"
     id="rect197" />
  <rect
     x="6"
     y="20"
     width="1"
     height="1"
     fill="#808080"
     stroke="black"
     stroke-width="0.05"
     id="rect199" />
  <rect
     x="7"
     y="1"
     width="1"
     height="1"
     fill="#808080"
     stroke="black"
     stroke-width="0.05"
     id="rect201" />
  <rect
     x="7"
     y="2"
     width="1"
     height="1"
     fill="#808080"
     stroke="black"
     stroke-width="0.05"
     id="rect203" />
  <rect
     x="7"
     y="3"
     width="1"
     height="1"
     fill="#808080"
     stroke="black"
     stroke-width="0.05"
     id="rect205" />
  <rect
     x="7"
     y="9"
     width="1"
     height="1"
     fill="#808080"
     stroke="black"
     stroke-width="0.05"
     id="rect207" />
  <rect
     x="7"
     y="10"
     width="1"
     height="1"
     fill="#808080"
     stroke="black"
     stroke-width="0.05"
     id="rect209" />
  <rect
     x="7"
     y="11"
     width="1"
     height="1"
     fill="#808080"
     stroke="black"
     stroke-width="0.05"
     id="rect211" />
  <rect
     x="7"
     y="12"
     width="1"
     height="1"
     fill="#808080"
     stroke="black"
     stroke-width="0.05"
     id="rect213" />
  <rect
     x="7"
     y="19"
     width="1"
     height="1"
     fill="#808080"
     stroke="black"
     stroke-width="0.05"
     id="rect215" />
  <rect
     x="7"
     y="20"
     width="1"
     height="1"
     fill="#808080"
     stroke="black"
     stroke-width="0.05"
     id="rect217" />
  <rect
     x="8"
     y="1"
     width="1"
     height="1"
     fill="#808080"
     stroke="black"
     stroke-width="0.05"
     id="rect219" />
  <rect
     x="8"
     y="2"
     width="1"
     height="1"
     fill="#808080"
     stroke="black"
     stroke-width="0.05"
     id="rect221" />
  <rect
     x="8"
     y="3"
     width="1"
     height="1"
     fill="#808080"
     stroke="black"
     stroke-width="0.05"
     id="rect223" />
  <rect
     x="8"
     y="9"
     width="1"
     height="1"
     fill="#808080"
     stroke="black"
     stroke-width="0.05"
     id="rect225" />
  <rect
     x="8"
     y="10"
     width="1"
     height="1"
     fill="#808080"
     stroke="black"
     stroke-width="0.05"
     id="rect227" />
  <rect
     x="8"
     y="11"
     width="1"
     height="1"
     fill="#808080"
     stroke="black"
     stroke-width="0.05"
     id="rect229" />
  <rect
     x="8"
     y="18"
     width="1"
     height="1"
     fill="#808080"
     stroke="black"
     stroke-width="0.05"
     id="rect231" />
  <rect
     x="8"
     y="19"
     width="1"
     height="1"
     fill="#808080"
     stroke="black"
     stroke-width="0.05"
     id="rect233" />
  <rect
     x="8"
     y="20"
     width="1"
     height="1"
     fill="#808080"
     stroke="black"
     stroke-width="0.05"
     id="rect235" />
  <rect
     x="9"
     y="1"
     width="1"
     height="1"
     fill="#808080"
     stroke="black"
     stroke-width="0.05"
     id="rect237" />
  <rect
     x="9"
     y="2"
     width="1"
     height="1"
     fill="#808080"
     stroke="black"
     stroke-width="0.05"
     id="rect239" />
  <rect
     x="9"
     y="3"
     width="1"
     height="1"
     fill="#808080"
     stroke="black"
     stroke-width="0.05"
     id="rect241" />
  <rect
     x="9"
     y="17"
     width="1"
     height="1"
     fill="#808080"
     stroke="black"
     stroke-width="0.05"
     id="rect243" />
  <rect
     x="9"
     y="18"
     width="1"
     height="1"
     fill="#808080"
     stroke="black"
     stroke-width="0.05"
     id="rect245" />
  <rect
     x="9"
     y="19"
     width="1"
     height="1"
     fill="#808080"
     stroke="black"
     stroke-width="0.05"
     id="rect247" />
  <rect
     x="9"
     y="20"
     width="1"
     height="1"
     fill="#808080"
     stroke="black"
     stroke-width="0.05"
     id="rect249" />
  <rect
     x="10"
     y="1"
     width="1"
     height="1"
     fill="#808080"
     stroke="black"
     stroke-width="0.05"
     id="rect251" />
  <rect
     x="10"
     y="12"
     width="1"
     height="1"
     fill="#808080"
     stroke="black"
     stroke-width="0.05"
     id="rect253" />
  <rect
     x="10"
     y="13"
     width="1"
     height="1"
     fill="#808080"
     stroke="black"
     stroke-width="0.05"
     id="rect255" />
  <rect
     x="10"
     y="14"
     width="1"
     height="1"
     fill="#808080"
     stroke="black"
     stroke-width="0.05"
     id="rect257" />
  <rect
     x="10"
     y="17"
     width="1"
     height="1"
     fill="#808080"
     stroke="black"
     stroke-width="0.05"
     id="rect259" />
  <rect
     x="10"
     y="18"
     width="1"
     height="1"
     fill="#808080"
     stroke="black"
     stroke-width="0.05"
     id="rect261" />
  <rect
     x="10"
     y="19"
     width="1"
     height="1"
     fill="#808080"
     stroke="black"
     stroke-width="0.05"
     id="rect263" />
  <rect
     x="10"
     y="20"
     width="1"
     height="1"
     fill="#808080"
     stroke="black"
     stroke-width="0.05"
     id="rect265" />
  <rect
     x="11"
     y="4"
     width="1"
     height="1"
     fill="#808080"
     stroke="black"
     stroke-width="0.05"
     id="rect267" />
  <rect
     x="11"
     y="5"
     width="1"
     height="1"
     fill="#808080"
     stroke="black"
     stroke-width="0.05"
     id="rect269" />
  <rect
     x="11"
     y="6"
     width="1"
     height="1"
     fill="#808080"
     stroke="black"
     stroke-width="0.05"
     id="rect271" />
  <rect
     x="11"
     y="11"
     width="1"
     height="1"
     fill="#808080"
     stroke="black"
     stroke-width="0.05"
     id="rect273" />
  <rect
     x="11"
     y="12"
     width="1"
     height="1"
     fill="#808080"
     stroke="black"
     stroke-width="0.05"
     id="rect275" />
  <rect
     x="11"
     y="13"
     width="1"
     height="1"
     fill="#808080"
     stroke="black"
     stroke-width="0.05"
     id="rect277" />
  <rect
     x="11"
     y="14"
     width="1"
     height="1"
     fill="#808080"
     stroke="black"
     stroke-width="0.05"
     id="rect279" />
  <rect
     x="11"
     y="15"
     width="1"
     height="1"
     fill="#808080"
     stroke="black"
     stroke-width="0.05"
     id="rect281" />
  <rect
     x="11"
     y="16"
     width="1"
     height="1"
     fill="#808080"
     stroke="black"
     stroke-width="0.05"
     id="rect283" />
  <rect
     x="11"
     y="17"
     width="1"
     height="1"
     fill="#808080"
     stroke="black"
     stroke-width="0.05"
     id="rect285" />
  <rect
     x="11"
     y="18"
     width="1"
     height="1"
     fill="#808080"
     stroke="black"
     stroke-width="0.05"
     id="rect287" />
  <rect
     x="11"
     y="19"
     width="1"
     height="1"
     fill="#808080"
     stroke="black"
     stroke-width="0.05"
     id="rect289" />
  <rect
     x="11"
     y="20"
     width="1"
     height="1"
     fill="#808080"
     stroke="black"
     stroke-width="0.05"
     id="rect291" />
  <rect
     x="12"
     y="4"
     width="1"
     height="1"
     fill="#808080"
     stroke="black"
     stroke-width="0.05"
     id="rect293" />
  <rect
     x="12"
     y="5"
     width="1"
     height="1"
     fill="#808080"
     stroke="black"
     stroke-width="0.05"
     id="rect295" />
  <rect
     x="12"
     y="6"
     width="1"
     height="1"
     fill="#808080"
     stroke="black"
     stroke-width="0.05"
     id="rect297" />
  <rect
     x="12"
     y="7"
     width="1"
     height="1"
     fill="#808080"
     stroke="black"
     stroke-width="0.05"
     id="rect299" />
  <rect
     x="12"
     y="10"
     width="1"
     height="1"
     fill="#808080"
     stroke="black"
     stroke-width="0.05"
     id="rect301" />
  <rect
     x="12"
     y="11"
     width="1"
     height="1"
     fill="#808080"
     stroke="black"
     stroke-width="0.05"
     id="rect303" />
  <rect
     x="12"
     y="12"
     width="1"
     height="1"
     fill="#808080"
     stroke="black"
     stroke-width="0.05"
     id="rect305" />
  <rect
     x="12"
     y="13"
     width="1"
     height="1"
     fill="#808080"
     stroke="black"
     stroke-width="0.05"
     id="rect307" />
  <rect
     x="12"
     y="14"
     width="1"
     height="1"
     fill="#808080"
     stroke="black"
     stroke-width="0.05"
     id="rect309" />
  <rect
     x="12"
     y="17"
     width="1"
     height="1"
     fill="#808080"
     stroke="black"
     stroke-width="0.05"
     id="rect311" />
  <rect
     x="12"
     y="18"
     width="1"
     height="1"
     fill="#808080"
     stroke="black"
     stroke-width="0.05"
     id="rect313" />
  <rect
     x="12"
     y="19"
     width="1"
     height="1"
     fill="#808080"
     stroke="black"
     stroke-width="0.05"
     id="rect315" />
  <rect
     x="12"
     y="20"
     width="1"
     height="1"
     fill="#808080"
     stroke="black"
     stroke-width="0.05"
     id="rect317" />
  <rect
     x="13"
     y="5"
     width="1"
     height="1"
     fill="#808080"
     stroke="black"
     stroke-width="0.05"
     id="rect319" />
  <rect
     x="13"
     y="6"
     width="1"
     height="1"
     fill="#808080"
     stroke="black"
     stroke-width="0.05"
     id="rect321" />
  <rect
     x="13"
     y="10"
     width="1"
     height="1"
     fill="#808080"
     stroke="black"
     stroke-width="0.05"
     id="rect323" />
  <rect
     x="13"
     y="11"
     width="1"
     height="1"
     fill="#808080"
     stroke="black"
     stroke-width="0.05"
     id="rect325" />
  <rect
     x="13"
     y="12"
     width="1"
     height="1"
     fill="#808080"
     stroke="black"
     stroke-width="0.05"
     id="rect327" />
  <rect
     x="13"
     y="13"
     width="1"
     height="1"
     fill="#808080"
     stroke="black"
     stroke-width="0.05"
     id="rect329" />
  <rect
     x="13"
     y="18"
     width="1"
     height="1"
     fill="#808080"
     stroke="black"
     stroke-width="0.05"
     id="rect331" />
  <rect
     x="13"
     y="19"
     width="1"
     height="1"
     fill="#808080"
     stroke="black"
     stroke-width="0.05"
     id="rect333" />
  <rect
     x="13"
     y="20"
     width="1"
     height="1"
     fill="#808080"
     stroke="black"
     stroke-width="0.05"
     id="rect335" />
  <rect
     x="14"
     y="5"
     width="1"
     height="1"
     fill="#808080"
     stroke="black"
     stroke-width="0.05"
     id="rect337" />
  <rect
     x="14"
     y="6"
     width="1"
     height="1"
     fill="#808080"
     stroke="black"
     stroke-width="0.05"
     id="rect339" />
  <rect
     x="14"
     y="10"
     width="1"
     height="1"
     fill="#808080"
     stroke="black"
     stroke-width="0.05"
     id="rect341" />
  <rect
     x="14"
     y="11"
     width="1"
     height="1"
     fill="#808080"
     stroke="black"
     stroke-width="0.05"
     id="rect343" />
  <rect
     x="14"
     y="20"
     width="1"
     height="1"
     fill="#808080"
     stroke="black"
     stroke-width="0.05"
     id="rect345" />
  <rect
     x="16"
     y="1"
     width="1"
     height="1"
     fill="#808080"
     stroke="black"
     stroke-width="0.05"
     id="rect347" />
  <rect
     x="16"
     y="16"
     width="1"
     height="1"
     fill="#808080"
     stroke="black"
     stroke-width="0.05"
     id="rect349" />
  <rect
     x="16"
     y="17"
     width="1"
     height="1"
     fill="#808080"
     stroke="black"
     stroke-width="0.05"
     id="rect351" />
  <rect
     x="16"
     y="18"
     width="1"
     height="1"
     fill="#808080"
     stroke="black"
     stroke-width="0.05"
     id="rect353" />
  <rect
     x="16"
     y="19"
     width="1"
     height="1"
     fill="#808080"
     stroke="black"
     stroke-width="0.05"
     id="rect355" />
  <rect
     x="16"
     y="20"
     width="1"
     height="1"
     fill="#808080"
     stroke="black"
     stroke-width="0.05"
     id="rect357" />
  <rect
     x="17"
     y="1"
     width="1"
     height="1"
     fill="#808080"
     stroke="black"
     stroke-width="0.05"
     id="rect359" />
  <rect
     x="17"
     y="15"
     width="1"
     height="1"
     fill="#808080"
     stroke="black"
     stroke-width="0.05"
     id="rect361" />
  <rect
     x="17"
     y="16"
     width="1"
     height="1"
     fill="#808080"
     stroke="black"
     stroke-width="0.05"
     id="rect363" />
  <rect
     x="17"
     y="17"
     width="1"
     height="1"
     fill="#808080"
     stroke="black"
     stroke-width="0.05"
     id="rect365" />
  <rect
     x="17"
     y="18"
     width="1"
     height="1"
     fill="#808080"
     stroke="black"
     stroke-width="0.05"
     id="rect367" />
  <rect
     x="17"
     y="19"
     width="1"
     height="1"
     fill="#808080"
     stroke="black"
     stroke-width="0.05"
     id="rect369" />
  <rect
     x="17"
     y="20"
     width="1"
     height="1"
     fill="#808080"
     stroke="black"
     stroke-width="0.05"
     id="rect371" />
  <rect
     x="18"
     y="1"
     width="1"
     height="1"
     fill="#808080"
     stroke="black"
     stroke-width="0.05"
     id="rect373" />
  <rect
     x="18"
     y="15"
     width="1"
     height="1"
     fill="#808080"
     stroke="black"
     stroke-width="0.05"
     id="rect375" />
  <rect
     x="18"
     y="16"
     width="1"
     height="1"
     fill="#808080"
     stroke="black"
     stroke-width="0.05"
     id="rect377" />
  <rect
     x="18"
     y="17"
     width="1"
     height="1"
     fill="#808080"
     stroke="black"
     stroke-width="0.05"
     id="rect379" />
  <rect
     x="18"
     y="18"
     width="1"
     height="1"
     fill="#808080"
     stroke="black"
     stroke-width="0.05"
     id="rect381" />
  <rect
     x="18"
     y="19"
     width="1"
     height="1"
     fill="#808080"
     stroke="black"
     stroke-width="0.05"
     id="rect383" />
  <rect
     x="18"
     y="20"
     width="1"
     height="1"
     fill="#808080"
     stroke="black"
     stroke-width="0.05"
     id="rect385" />
  <rect
     x="19"
     y="1"
     width="1"
     height="1"
     fill="#808080"
     stroke="black"
     stroke-width="0.05"
     id="rect387" />
  <rect
     x="19"
     y="2"
     width="1"
     height="1"
     fill="#808080"
     stroke="black"
     stroke-width="0.05"
     id="rect389" />
  <rect
     x="19"
     y="13"
     width="1"
     height="1"
     fill="#808080"
     stroke="black"
     stroke-width="0.05"
     id="rect391" />
  <rect
     x="19"
     y="14"
     width="1"
     height="1"
     fill="#808080"
     stroke="black"
     stroke-width="0.05"
     id="rect393" />
  <rect
     x="19"
     y="15"
     width="1"
     height="1"
     fill="#808080"
     stroke="black"
     stroke-width="0.05"
     id="rect395" />
  <rect
     x="19"
     y="16"
     width="1"
     height="1"
     fill="#808080"
     stroke="black"
     stroke-width="0.05"
     id="rect397" />
  <rect
     x="19"
     y="17"
     width="1"
     height="1"
     fill="#808080"
     stroke="black"
     stroke-width="0.05"
     id="rect399" />
  <rect
     x="19"
     y="18"
     width="1"
     height="1"
     fill="#808080"
     stroke="black"
     stroke-width="0.05"
     id="rect401" />
  <rect
     x="19"
     y="19"
     width="1"
     height="1"
     fill="#808080"
     stroke="black"
     stroke-width="0.05"
     id="rect403" />
  <rect
     x="19"
     y="20"
     width="1"
     height="1"
     fill="#808080"
     stroke="black"
     stroke-width="0.05"
     id="rect405" />
  <rect
     x="20"
     y="1"
     width="1"
     height="1"
     fill="#808080"
     stroke="black"
     stroke-width="0.05"
     id="rect407" />
  <rect
     x="20"
     y="2"
     width="1"
     height="1"
     fill="#808080"
     stroke="black"
     stroke-width="0.05"
     id="rect409" />
  <rect
     x="20"
     y="3"
     width="1"
     height="1"
     fill="#808080"
     stroke="black"
     stroke-width="0.05"
     id="rect411" />
  <rect
     x="20"
     y="4"
     width="1"
     height="1"
     fill="#808080"
     stroke="black"
     stroke-width="0.05"
     id="rect413" />
  <rect
     x="20"
     y="5"
     width="1"
     height="1"
     fill="#808080"
     stroke="black"
     stroke-width="0.05"
     id="rect415" />
  <rect
     x="20"
     y="11"
     width="1"
     height="1"
     fill="#808080"
     stroke="black"
     stroke-width="0.05"
     id="rect417" />
  <rect
     x="20"
     y="12"
     width="1"
     height="1"
     fill="#808080"
     stroke="black"
     stroke-width="0.05"
     id="rect419" />
  <rect
     x="20"
     y="13"
     width="1"
     height="1"
     fill="#808080"
     stroke="black"
     stroke-width="0.05"
     id="rect421" />
  <rect
     x="20"
     y="14"
     width="1"
     height="1"
     fill="#808080"
     stroke="black"
     stroke-width="0.05"
     id="rect423" />
  <rect
     x="20"
     y="15"
     width="1"
     height="1"
     fill="#808080"
     stroke="black"
     stroke-width="0.05"
     id="rect425" />
  <rect
     x="20"
     y="16"
     width="1"
     height="1"
     fill="#808080"
     stroke="black"
     stroke-width="0.05"
     id="rect427" />
  <rect
     x="20"
     y="17"
     width="1"
     height="1"
     fill="#808080"
     stroke="black"
     stroke-width="0.05"
     id="rect429" />
  <rect
     x="20"
     y="18"
     width="1"
     height="1"
     fill="#808080"
     stroke="black"
     stroke-width="0.05"
     id="rect431" />
  <rect
     x="20"
     y="19"
     width="1"
     height="1"
     fill="#808080"
     stroke="black"
     stroke-width="0.05"
     id="rect433" />
  <rect
     x="20"
     y="20"
     width="1"
     height="1"
     fill="#808080"
     stroke="black"
     stroke-width="0.05"
     id="rect435" />
  <rect
     x="18"
     y="7"
     width="1"
     height="1"
     stroke="black"
     stroke-width="0.0"
     fill-opacity="0.1"
     style="stroke: #000000; fill: url(#pattern_XDotV);"
     id="rect437" />
  <rect
     x="19"
     y="7"
     width="1"
     height="1"
     stroke="black"
     stroke-width="0.0"
     fill-opacity="0.1"
     style="stroke: #000000; fill: url(#pattern_XDotV);"
     id="rect439" />
  <rect
     x="18"
     y="8"
     width="1"
     height="1"
     stroke="black"
     stroke-width="0.0"
     fill-opacity="0.1"
     style="stroke: #000000; fill: url(#pattern_XDotV);"
     id="rect441" />
</svg>
