<svg xmlns="http://www.w3.org/2000/svg" version="1.1" baseProfile="full" width="32" height="32">
<defs>
        <pattern id="pattern_XDotV" patternUnits="userSpaceOnUse" width="0.4" height="0.4" patternTransform="rotate(45)">
            <line x1="0" y1="0" x2="0" y2="1" stroke="#FF0000" stroke-width="0.5" />
        </pattern>
    </defs>
<rect x="22" y="7" width="1" height="1" fill="#ffff00" stroke="black" stroke-width="0.05" />
<rect x="6" y="7" width="1" height="1" fill="#ff0000" stroke="black" stroke-width="0.05" />
<rect x="10" y="25" width="1" height="1" fill="#ffff00" stroke="black" stroke-width="0.05" />
<rect x="9" y="16" width="1" height="1" fill="#ffff00" stroke="black" stroke-width="0.05" />
<rect x="28" y="11" width="1" height="1" fill="#ff0000" stroke="black" stroke-width="0.05" />
<rect x="1" y="1" width="1" height="1" fill="#808080" stroke="black" stroke-width="0.05" />
<rect x="1" y="2" width="1" height="1" fill="#808080" stroke="black" stroke-width="0.05" />
<rect x="1" y="3" width="1" height="1" fill="#808080" stroke="black" stroke-width="0.05" />
<rect x="1" y="4" width="1" height="1" fill="#808080" stroke="black" stroke-width="0.05" />
<rect x="1" y="5" width="1" height="1" fill="#808080" stroke="black" stroke-width="0.05" />
<rect x="1" y="6" width="1" height="1" fill="#808080" stroke="black" stroke-width="0.05" />
<rect x="1" y="7" width="1" height="1" fill="#808080" stroke="black" stroke-width="0.05" />
<rect x="1" y="8" width="1" height="1" fill="#808080" stroke="black" stroke-width="0.05" />
<rect x="1" y="9" width="1" height="1" fill="#808080" stroke="black" stroke-width="0.05" />
<rect x="1" y="10" width="1" height="1" fill="#808080" stroke="black" stroke-width="0.05" />
<rect x="1" y="11" width="1" height="1" fill="#808080" stroke="black" stroke-width="0.05" />
<rect x="1" y="12" width="1" height="1" fill="#808080" stroke="black" stroke-width="0.05" />
<rect x="1" y="13" width="1" height="1" fill="#808080" stroke="black" stroke-width="0.05" />
<rect x="1" y="14" width="1" height="1" fill="#808080" stroke="black" stroke-width="0.05" />
<rect x="1" y="15" width="1" height="1" fill="#808080" stroke="black" stroke-width="0.05" />
<rect x="1" y="16" width="1" height="1" fill="#808080" stroke="black" stroke-width="0.05" />
<rect x="1" y="17" width="1" height="1" fill="#808080" stroke="black" stroke-width="0.05" />
<rect x="1" y="18" width="1" height="1" fill="#808080" stroke="black" stroke-width="0.05" />
<rect x="1" y="19" width="1" height="1" fill="#808080" stroke="black" stroke-width="0.05" />
<rect x="1" y="20" width="1" height="1" fill="#808080" stroke="black" stroke-width="0.05" />
<rect x="1" y="21" width="1" height="1" fill="#808080" stroke="black" stroke-width="0.05" />
<rect x="1" y="22" width="1" height="1" fill="#808080" stroke="black" stroke-width="0.05" />
<rect x="1" y="23" width="1" height="1" fill="#808080" stroke="black" stroke-width="0.05" />
<rect x="1" y="24" width="1" height="1" fill="#808080" stroke="black" stroke-width="0.05" />
<rect x="1" y="25" width="1" height="1" fill="#808080" stroke="black" stroke-width="0.05" />
<rect x="1" y="26" width="1" height="1" fill="#808080" stroke="black" stroke-width="0.05" />
<rect x="1" y="27" width="1" height="1" fill="#808080" stroke="black" stroke-width="0.05" />
<rect x="1" y="28" width="1" height="1" fill="#808080" stroke="black" stroke-width="0.05" />
<rect x="1" y="29" width="1" height="1" fill="#808080" stroke="black" stroke-width="0.05" />
<rect x="1" y="30" width="1" height="1" fill="#808080" stroke="black" stroke-width="0.05" />
<rect x="2" y="1" width="1" height="1" fill="#808080" stroke="black" stroke-width="0.05" />
<rect x="2" y="2" width="1" height="1" fill="#808080" stroke="black" stroke-width="0.05" />
<rect x="2" y="3" width="1" height="1" fill="#808080" stroke="black" stroke-width="0.05" />
<rect x="2" y="4" width="1" height="1" fill="#808080" stroke="black" stroke-width="0.05" />
<rect x="2" y="5" width="1" height="1" fill="#808080" stroke="black" stroke-width="0.05" />
<rect x="2" y="6" width="1" height="1" fill="#808080" stroke="black" stroke-width="0.05" />
<rect x="2" y="7" width="1" height="1" fill="#808080" stroke="black" stroke-width="0.05" />
<rect x="2" y="8" width="1" height="1" fill="#808080" stroke="black" stroke-width="0.05" />
<rect x="2" y="10" width="1" height="1" fill="#808080" stroke="black" stroke-width="0.05" />
<rect x="2" y="11" width="1" height="1" fill="#808080" stroke="black" stroke-width="0.05" />
<rect x="2" y="12" width="1" height="1" fill="#808080" stroke="black" stroke-width="0.05" />
<rect x="2" y="13" width="1" height="1" fill="#808080" stroke="black" stroke-width="0.05" />
<rect x="2" y="14" width="1" height="1" fill="#808080" stroke="black" stroke-width="0.05" />
<rect x="2" y="15" width="1" height="1" fill="#808080" stroke="black" stroke-width="0.05" />
<rect x="2" y="29" width="1" height="1" fill="#808080" stroke="black" stroke-width="0.05" />
<rect x="2" y="30" width="1" height="1" fill="#808080" stroke="black" stroke-width="0.05" />
<rect x="3" y="1" width="1" height="1" fill="#808080" stroke="black" stroke-width="0.05" />
<rect x="3" y="2" width="1" height="1" fill="#808080" stroke="black" stroke-width="0.05" />
<rect x="3" y="3" width="1" height="1" fill="#808080" stroke="black" stroke-width="0.05" />
<rect x="3" y="5" width="1" height="1" fill="#808080" stroke="black" stroke-width="0.05" />
<rect x="3" y="6" width="1" height="1" fill="#808080" stroke="black" stroke-width="0.05" />
<rect x="3" y="7" width="1" height="1" fill="#808080" stroke="black" stroke-width="0.05" />
<rect x="3" y="11" width="1" height="1" fill="#808080" stroke="black" stroke-width="0.05" />
<rect x="3" y="12" width="1" height="1" fill="#808080" stroke="black" stroke-width="0.05" />
<rect x="3" y="13" width="1" height="1" fill="#808080" stroke="black" stroke-width="0.05" />
<rect x="3" y="14" width="1" height="1" fill="#808080" stroke="black" stroke-width="0.05" />
<rect x="3" y="30" width="1" height="1" fill="#808080" stroke="black" stroke-width="0.05" />
<rect x="4" y="1" width="1" height="1" fill="#808080" stroke="black" stroke-width="0.05" />
<rect x="4" y="2" width="1" height="1" fill="#808080" stroke="black" stroke-width="0.05" />
<rect x="4" y="6" width="1" height="1" fill="#808080" stroke="black" stroke-width="0.05" />
<rect x="4" y="7" width="1" height="1" fill="#808080" stroke="black" stroke-width="0.05" />
<rect x="4" y="11" width="1" height="1" fill="#808080" stroke="black" stroke-width="0.05" />
<rect x="4" y="12" width="1" height="1" fill="#808080" stroke="black" stroke-width="0.05" />
<rect x="4" y="13" width="1" height="1" fill="#808080" stroke="black" stroke-width="0.05" />
<rect x="4" y="14" width="1" height="1" fill="#808080" stroke="black" stroke-width="0.05" />
<rect x="4" y="19" width="1" height="1" fill="#808080" stroke="black" stroke-width="0.05" />
<rect x="4" y="30" width="1" height="1" fill="#808080" stroke="black" stroke-width="0.05" />
<rect x="5" y="1" width="1" height="1" fill="#808080" stroke="black" stroke-width="0.05" />
<rect x="5" y="11" width="1" height="1" fill="#808080" stroke="black" stroke-width="0.05" />
<rect x="5" y="12" width="1" height="1" fill="#808080" stroke="black" stroke-width="0.05" />
<rect x="5" y="13" width="1" height="1" fill="#808080" stroke="black" stroke-width="0.05" />
<rect x="5" y="14" width="1" height="1" fill="#808080" stroke="black" stroke-width="0.05" />
<rect x="5" y="15" width="1" height="1" fill="#808080" stroke="black" stroke-width="0.05" />
<rect x="5" y="19" width="1" height="1" fill="#808080" stroke="black" stroke-width="0.05" />
<rect x="5" y="20" width="1" height="1" fill="#808080" stroke="black" stroke-width="0.05" />
<rect x="5" y="30" width="1" height="1" fill="#808080" stroke="black" stroke-width="0.05" />
<rect x="6" y="1" width="1" height="1" fill="#808080" stroke="black" stroke-width="0.05" />
<rect x="6" y="13" width="1" height="1" fill="#808080" stroke="black" stroke-width="0.05" />
<rect x="6" y="18" width="1" height="1" fill="#808080" stroke="black" stroke-width="0.05" />
<rect x="6" y="19" width="1" height="1" fill="#808080" stroke="black" stroke-width="0.05" />
<rect x="6" y="20" width="1" height="1" fill="#808080" stroke="black" stroke-width="0.05" />
<rect x="6" y="21" width="1" height="1" fill="#808080" stroke="black" stroke-width="0.05" />
<rect x="6" y="30" width="1" height="1" fill="#808080" stroke="black" stroke-width="0.05" />
<rect x="7" y="1" width="1" height="1" fill="#808080" stroke="black" stroke-width="0.05" />
<rect x="7" y="18" width="1" height="1" fill="#808080" stroke="black" stroke-width="0.05" />
<rect x="7" y="19" width="1" height="1" fill="#808080" stroke="black" stroke-width="0.05" />
<rect x="7" y="20" width="1" height="1" fill="#808080" stroke="black" stroke-width="0.05" />
<rect x="7" y="21" width="1" height="1" fill="#808080" stroke="black" stroke-width="0.05" />
<rect x="7" y="22" width="1" height="1" fill="#808080" stroke="black" stroke-width="0.05" />
<rect x="7" y="29" width="1" height="1" fill="#808080" stroke="black" stroke-width="0.05" />
<rect x="7" y="30" width="1" height="1" fill="#808080" stroke="black" stroke-width="0.05" />
<rect x="8" y="1" width="1" height="1" fill="#808080" stroke="black" stroke-width="0.05" />
<rect x="8" y="18" width="1" height="1" fill="#808080" stroke="black" stroke-width="0.05" />
<rect x="8" y="19" width="1" height="1" fill="#808080" stroke="black" stroke-width="0.05" />
<rect x="8" y="20" width="1" height="1" fill="#808080" stroke="black" stroke-width="0.05" />
<rect x="8" y="21" width="1" height="1" fill="#808080" stroke="black" stroke-width="0.05" />
<rect x="8" y="22" width="1" height="1" fill="#808080" stroke="black" stroke-width="0.05" />
<rect x="8" y="28" width="1" height="1" fill="#808080" stroke="black" stroke-width="0.05" />
<rect x="8" y="29" width="1" height="1" fill="#808080" stroke="black" stroke-width="0.05" />
<rect x="8" y="30" width="1" height="1" fill="#808080" stroke="black" stroke-width="0.05" />
<rect x="9" y="1" width="1" height="1" fill="#808080" stroke="black" stroke-width="0.05" />
<rect x="9" y="5" width="1" height="1" fill="#808080" stroke="black" stroke-width="0.05" />
<rect x="9" y="6" width="1" height="1" fill="#808080" stroke="black" stroke-width="0.05" />
<rect x="9" y="7" width="1" height="1" fill="#808080" stroke="black" stroke-width="0.05" />
<rect x="9" y="19" width="1" height="1" fill="#808080" stroke="black" stroke-width="0.05" />
<rect x="9" y="20" width="1" height="1" fill="#808080" stroke="black" stroke-width="0.05" />
<rect x="9" y="21" width="1" height="1" fill="#808080" stroke="black" stroke-width="0.05" />
<rect x="9" y="22" width="1" height="1" fill="#808080" stroke="black" stroke-width="0.05" />
<rect x="9" y="27" width="1" height="1" fill="#808080" stroke="black" stroke-width="0.05" />
<rect x="9" y="28" width="1" height="1" fill="#808080" stroke="black" stroke-width="0.05" />
<rect x="9" y="29" width="1" height="1" fill="#808080" stroke="black" stroke-width="0.05" />
<rect x="9" y="30" width="1" height="1" fill="#808080" stroke="black" stroke-width="0.05" />
<rect x="10" y="1" width="1" height="1" fill="#808080" stroke="black" stroke-width="0.05" />
<rect x="10" y="4" width="1" height="1" fill="#808080" stroke="black" stroke-width="0.05" />
<rect x="10" y="5" width="1" height="1" fill="#808080" stroke="black" stroke-width="0.05" />
<rect x="10" y="6" width="1" height="1" fill="#808080" stroke="black" stroke-width="0.05" />
<rect x="10" y="7" width="1" height="1" fill="#808080" stroke="black" stroke-width="0.05" />
<rect x="10" y="8" width="1" height="1" fill="#808080" stroke="black" stroke-width="0.05" />
<rect x="10" y="9" width="1" height="1" fill="#808080" stroke="black" stroke-width="0.05" />
<rect x="10" y="10" width="1" height="1" fill="#808080" stroke="black" stroke-width="0.05" />
<rect x="10" y="20" width="1" height="1" fill="#808080" stroke="black" stroke-width="0.05" />
<rect x="10" y="21" width="1" height="1" fill="#808080" stroke="black" stroke-width="0.05" />
<rect x="10" y="22" width="1" height="1" fill="#808080" stroke="black" stroke-width="0.05" />
<rect x="10" y="28" width="1" height="1" fill="#808080" stroke="black" stroke-width="0.05" />
<rect x="10" y="29" width="1" height="1" fill="#808080" stroke="black" stroke-width="0.05" />
<rect x="10" y="30" width="1" height="1" fill="#808080" stroke="black" stroke-width="0.05" />
<rect x="11" y="4" width="1" height="1" fill="#808080" stroke="black" stroke-width="0.05" />
<rect x="11" y="5" width="1" height="1" fill="#808080" stroke="black" stroke-width="0.05" />
<rect x="11" y="6" width="1" height="1" fill="#808080" stroke="black" stroke-width="0.05" />
<rect x="11" y="7" width="1" height="1" fill="#808080" stroke="black" stroke-width="0.05" />
<rect x="11" y="8" width="1" height="1" fill="#808080" stroke="black" stroke-width="0.05" />
<rect x="11" y="9" width="1" height="1" fill="#808080" stroke="black" stroke-width="0.05" />
<rect x="11" y="20" width="1" height="1" fill="#808080" stroke="black" stroke-width="0.05" />
<rect x="11" y="21" width="1" height="1" fill="#808080" stroke="black" stroke-width="0.05" />
<rect x="11" y="22" width="1" height="1" fill="#808080" stroke="black" stroke-width="0.05" />
<rect x="11" y="29" width="1" height="1" fill="#808080" stroke="black" stroke-width="0.05" />
<rect x="11" y="30" width="1" height="1" fill="#808080" stroke="black" stroke-width="0.05" />
<rect x="12" y="4" width="1" height="1" fill="#808080" stroke="black" stroke-width="0.05" />
<rect x="12" y="5" width="1" height="1" fill="#808080" stroke="black" stroke-width="0.05" />
<rect x="12" y="6" width="1" height="1" fill="#808080" stroke="black" stroke-width="0.05" />
<rect x="12" y="7" width="1" height="1" fill="#808080" stroke="black" stroke-width="0.05" />
<rect x="12" y="8" width="1" height="1" fill="#808080" stroke="black" stroke-width="0.05" />
<rect x="12" y="17" width="1" height="1" fill="#808080" stroke="black" stroke-width="0.05" />
<rect x="12" y="18" width="1" height="1" fill="#808080" stroke="black" stroke-width="0.05" />
<rect x="12" y="19" width="1" height="1" fill="#808080" stroke="black" stroke-width="0.05" />
<rect x="12" y="20" width="1" height="1" fill="#808080" stroke="black" stroke-width="0.05" />
<rect x="12" y="21" width="1" height="1" fill="#808080" stroke="black" stroke-width="0.05" />
<rect x="12" y="22" width="1" height="1" fill="#808080" stroke="black" stroke-width="0.05" />
<rect x="12" y="28" width="1" height="1" fill="#808080" stroke="black" stroke-width="0.05" />
<rect x="12" y="29" width="1" height="1" fill="#808080" stroke="black" stroke-width="0.05" />
<rect x="12" y="30" width="1" height="1" fill="#808080" stroke="black" stroke-width="0.05" />
<rect x="13" y="6" width="1" height="1" fill="#808080" stroke="black" stroke-width="0.05" />
<rect x="13" y="7" width="1" height="1" fill="#808080" stroke="black" stroke-width="0.05" />
<rect x="13" y="16" width="1" height="1" fill="#808080" stroke="black" stroke-width="0.05" />
<rect x="13" y="17" width="1" height="1" fill="#808080" stroke="black" stroke-width="0.05" />
<rect x="13" y="18" width="1" height="1" fill="#808080" stroke="black" stroke-width="0.05" />
<rect x="13" y="19" width="1" height="1" fill="#808080" stroke="black" stroke-width="0.05" />
<rect x="13" y="20" width="1" height="1" fill="#808080" stroke="black" stroke-width="0.05" />
<rect x="13" y="21" width="1" height="1" fill="#808080" stroke="black" stroke-width="0.05" />
<rect x="13" y="22" width="1" height="1" fill="#808080" stroke="black" stroke-width="0.05" />
<rect x="13" y="28" width="1" height="1" fill="#808080" stroke="black" stroke-width="0.05" />
<rect x="13" y="29" width="1" height="1" fill="#808080" stroke="black" stroke-width="0.05" />
<rect x="13" y="30" width="1" height="1" fill="#808080" stroke="black" stroke-width="0.05" />
<rect x="14" y="10" width="1" height="1" fill="#808080" stroke="black" stroke-width="0.05" />
<rect x="14" y="11" width="1" height="1" fill="#808080" stroke="black" stroke-width="0.05" />
<rect x="14" y="16" width="1" height="1" fill="#808080" stroke="black" stroke-width="0.05" />
<rect x="14" y="17" width="1" height="1" fill="#808080" stroke="black" stroke-width="0.05" />
<rect x="14" y="18" width="1" height="1" fill="#808080" stroke="black" stroke-width="0.05" />
<rect x="14" y="19" width="1" height="1" fill="#808080" stroke="black" stroke-width="0.05" />
<rect x="14" y="20" width="1" height="1" fill="#808080" stroke="black" stroke-width="0.05" />
<rect x="14" y="21" width="1" height="1" fill="#808080" stroke="black" stroke-width="0.05" />
<rect x="14" y="22" width="1" height="1" fill="#808080" stroke="black" stroke-width="0.05" />
<rect x="14" y="23" width="1" height="1" fill="#808080" stroke="black" stroke-width="0.05" />
<rect x="14" y="26" width="1" height="1" fill="#808080" stroke="black" stroke-width="0.05" />
<rect x="14" y="27" width="1" height="1" fill="#808080" stroke="black" stroke-width="0.05" />
<rect x="14" y="28" width="1" height="1" fill="#808080" stroke="black" stroke-width="0.05" />
<rect x="14" y="29" width="1" height="1" fill="#808080" stroke="black" stroke-width="0.05" />
<rect x="14" y="30" width="1" height="1" fill="#808080" stroke="black" stroke-width="0.05" />
<rect x="15" y="1" width="1" height="1" fill="#808080" stroke="black" stroke-width="0.05" />
<rect x="15" y="9" width="1" height="1" fill="#808080" stroke="black" stroke-width="0.05" />
<rect x="15" y="10" width="1" height="1" fill="#808080" stroke="black" stroke-width="0.05" />
<rect x="15" y="11" width="1" height="1" fill="#808080" stroke="black" stroke-width="0.05" />
<rect x="15" y="12" width="1" height="1" fill="#808080" stroke="black" stroke-width="0.05" />
<rect x="15" y="17" width="1" height="1" fill="#808080" stroke="black" stroke-width="0.05" />
<rect x="15" y="18" width="1" height="1" fill="#808080" stroke="black" stroke-width="0.05" />
<rect x="15" y="19" width="1" height="1" fill="#808080" stroke="black" stroke-width="0.05" />
<rect x="15" y="21" width="1" height="1" fill="#808080" stroke="black" stroke-width="0.05" />
<rect x="15" y="22" width="1" height="1" fill="#808080" stroke="black" stroke-width="0.05" />
<rect x="15" y="23" width="1" height="1" fill="#808080" stroke="black" stroke-width="0.05" />
<rect x="15" y="24" width="1" height="1" fill="#808080" stroke="black" stroke-width="0.05" />
<rect x="15" y="25" width="1" height="1" fill="#808080" stroke="black" stroke-width="0.05" />
<rect x="15" y="26" width="1" height="1" fill="#808080" stroke="black" stroke-width="0.05" />
<rect x="15" y="27" width="1" height="1" fill="#808080" stroke="black" stroke-width="0.05" />
<rect x="15" y="28" width="1" height="1" fill="#808080" stroke="black" stroke-width="0.05" />
<rect x="15" y="29" width="1" height="1" fill="#808080" stroke="black" stroke-width="0.05" />
<rect x="15" y="30" width="1" height="1" fill="#808080" stroke="black" stroke-width="0.05" />
<rect x="16" y="1" width="1" height="1" fill="#808080" stroke="black" stroke-width="0.05" />
<rect x="16" y="2" width="1" height="1" fill="#808080" stroke="black" stroke-width="0.05" />
<rect x="16" y="10" width="1" height="1" fill="#808080" stroke="black" stroke-width="0.05" />
<rect x="16" y="11" width="1" height="1" fill="#808080" stroke="black" stroke-width="0.05" />
<rect x="16" y="12" width="1" height="1" fill="#808080" stroke="black" stroke-width="0.05" />
<rect x="16" y="13" width="1" height="1" fill="#808080" stroke="black" stroke-width="0.05" />
<rect x="16" y="23" width="1" height="1" fill="#808080" stroke="black" stroke-width="0.05" />
<rect x="16" y="24" width="1" height="1" fill="#808080" stroke="black" stroke-width="0.05" />
<rect x="16" y="25" width="1" height="1" fill="#808080" stroke="black" stroke-width="0.05" />
<rect x="16" y="26" width="1" height="1" fill="#808080" stroke="black" stroke-width="0.05" />
<rect x="16" y="27" width="1" height="1" fill="#808080" stroke="black" stroke-width="0.05" />
<rect x="16" y="29" width="1" height="1" fill="#808080" stroke="black" stroke-width="0.05" />
<rect x="16" y="30" width="1" height="1" fill="#808080" stroke="black" stroke-width="0.05" />
<rect x="17" y="1" width="1" height="1" fill="#808080" stroke="black" stroke-width="0.05" />
<rect x="17" y="2" width="1" height="1" fill="#808080" stroke="black" stroke-width="0.05" />
<rect x="17" y="3" width="1" height="1" fill="#808080" stroke="black" stroke-width="0.05" />
<rect x="17" y="6" width="1" height="1" fill="#808080" stroke="black" stroke-width="0.05" />
<rect x="17" y="7" width="1" height="1" fill="#808080" stroke="black" stroke-width="0.05" />
<rect x="17" y="11" width="1" height="1" fill="#808080" stroke="black" stroke-width="0.05" />
<rect x="17" y="12" width="1" height="1" fill="#808080" stroke="black" stroke-width="0.05" />
<rect x="17" y="13" width="1" height="1" fill="#808080" stroke="black" stroke-width="0.05" />
<rect x="17" y="23" width="1" height="1" fill="#808080" stroke="black" stroke-width="0.05" />
<rect x="17" y="24" width="1" height="1" fill="#808080" stroke="black" stroke-width="0.05" />
<rect x="17" y="25" width="1" height="1" fill="#808080" stroke="black" stroke-width="0.05" />
<rect x="17" y="30" width="1" height="1" fill="#808080" stroke="black" stroke-width="0.05" />
<rect x="18" y="1" width="1" height="1" fill="#808080" stroke="black" stroke-width="0.05" />
<rect x="18" y="2" width="1" height="1" fill="#808080" stroke="black" stroke-width="0.05" />
<rect x="18" y="3" width="1" height="1" fill="#808080" stroke="black" stroke-width="0.05" />
<rect x="18" y="4" width="1" height="1" fill="#808080" stroke="black" stroke-width="0.05" />
<rect x="18" y="5" width="1" height="1" fill="#808080" stroke="black" stroke-width="0.05" />
<rect x="18" y="6" width="1" height="1" fill="#808080" stroke="black" stroke-width="0.05" />
<rect x="18" y="7" width="1" height="1" fill="#808080" stroke="black" stroke-width="0.05" />
<rect x="18" y="8" width="1" height="1" fill="#808080" stroke="black" stroke-width="0.05" />
<rect x="18" y="12" width="1" height="1" fill="#808080" stroke="black" stroke-width="0.05" />
<rect x="18" y="25" width="1" height="1" fill="#808080" stroke="black" stroke-width="0.05" />
<rect x="18" y="30" width="1" height="1" fill="#808080" stroke="black" stroke-width="0.05" />
<rect x="19" y="1" width="1" height="1" fill="#808080" stroke="black" stroke-width="0.05" />
<rect x="19" y="2" width="1" height="1" fill="#808080" stroke="black" stroke-width="0.05" />
<rect x="19" y="3" width="1" height="1" fill="#808080" stroke="black" stroke-width="0.05" />
<rect x="19" y="4" width="1" height="1" fill="#808080" stroke="black" stroke-width="0.05" />
<rect x="19" y="5" width="1" height="1" fill="#808080" stroke="black" stroke-width="0.05" />
<rect x="19" y="6" width="1" height="1" fill="#808080" stroke="black" stroke-width="0.05" />
<rect x="19" y="7" width="1" height="1" fill="#808080" stroke="black" stroke-width="0.05" />
<rect x="19" y="23" width="1" height="1" fill="#808080" stroke="black" stroke-width="0.05" />
<rect x="19" y="25" width="1" height="1" fill="#808080" stroke="black" stroke-width="0.05" />
<rect x="19" y="26" width="1" height="1" fill="#808080" stroke="black" stroke-width="0.05" />
<rect x="19" y="30" width="1" height="1" fill="#808080" stroke="black" stroke-width="0.05" />
<rect x="20" y="1" width="1" height="1" fill="#808080" stroke="black" stroke-width="0.05" />
<rect x="20" y="2" width="1" height="1" fill="#808080" stroke="black" stroke-width="0.05" />
<rect x="20" y="4" width="1" height="1" fill="#808080" stroke="black" stroke-width="0.05" />
<rect x="20" y="5" width="1" height="1" fill="#808080" stroke="black" stroke-width="0.05" />
<rect x="20" y="6" width="1" height="1" fill="#808080" stroke="black" stroke-width="0.05" />
<rect x="20" y="17" width="1" height="1" fill="#808080" stroke="black" stroke-width="0.05" />
<rect x="20" y="18" width="1" height="1" fill="#808080" stroke="black" stroke-width="0.05" />
<rect x="20" y="23" width="1" height="1" fill="#808080" stroke="black" stroke-width="0.05" />
<rect x="20" y="24" width="1" height="1" fill="#808080" stroke="black" stroke-width="0.05" />
<rect x="20" y="25" width="1" height="1" fill="#808080" stroke="black" stroke-width="0.05" />
<rect x="20" y="26" width="1" height="1" fill="#808080" stroke="black" stroke-width="0.05" />
<rect x="20" y="30" width="1" height="1" fill="#808080" stroke="black" stroke-width="0.05" />
<rect x="21" y="1" width="1" height="1" fill="#808080" stroke="black" stroke-width="0.05" />
<rect x="21" y="13" width="1" height="1" fill="#808080" stroke="black" stroke-width="0.05" />
<rect x="21" y="14" width="1" height="1" fill="#808080" stroke="black" stroke-width="0.05" />
<rect x="21" y="15" width="1" height="1" fill="#808080" stroke="black" stroke-width="0.05" />
<rect x="21" y="16" width="1" height="1" fill="#808080" stroke="black" stroke-width="0.05" />
<rect x="21" y="17" width="1" height="1" fill="#808080" stroke="black" stroke-width="0.05" />
<rect x="21" y="18" width="1" height="1" fill="#808080" stroke="black" stroke-width="0.05" />
<rect x="21" y="19" width="1" height="1" fill="#808080" stroke="black" stroke-width="0.05" />
<rect x="21" y="24" width="1" height="1" fill="#808080" stroke="black" stroke-width="0.05" />
<rect x="21" y="25" width="1" height="1" fill="#808080" stroke="black" stroke-width="0.05" />
<rect x="21" y="26" width="1" height="1" fill="#808080" stroke="black" stroke-width="0.05" />
<rect x="21" y="30" width="1" height="1" fill="#808080" stroke="black" stroke-width="0.05" />
<rect x="22" y="12" width="1" height="1" fill="#808080" stroke="black" stroke-width="0.05" />
<rect x="22" y="13" width="1" height="1" fill="#808080" stroke="black" stroke-width="0.05" />
<rect x="22" y="14" width="1" height="1" fill="#808080" stroke="black" stroke-width="0.05" />
<rect x="22" y="15" width="1" height="1" fill="#808080" stroke="black" stroke-width="0.05" />
<rect x="22" y="16" width="1" height="1" fill="#808080" stroke="black" stroke-width="0.05" />
<rect x="22" y="17" width="1" height="1" fill="#808080" stroke="black" stroke-width="0.05" />
<rect x="22" y="18" width="1" height="1" fill="#808080" stroke="black" stroke-width="0.05" />
<rect x="22" y="25" width="1" height="1" fill="#808080" stroke="black" stroke-width="0.05" />
<rect x="22" y="29" width="1" height="1" fill="#808080" stroke="black" stroke-width="0.05" />
<rect x="22" y="30" width="1" height="1" fill="#808080" stroke="black" stroke-width="0.05" />
<rect x="23" y="12" width="1" height="1" fill="#808080" stroke="black" stroke-width="0.05" />
<rect x="23" y="13" width="1" height="1" fill="#808080" stroke="black" stroke-width="0.05" />
<rect x="23" y="14" width="1" height="1" fill="#808080" stroke="black" stroke-width="0.05" />
<rect x="23" y="15" width="1" height="1" fill="#808080" stroke="black" stroke-width="0.05" />
<rect x="23" y="16" width="1" height="1" fill="#808080" stroke="black" stroke-width="0.05" />
<rect x="23" y="17" width="1" height="1" fill="#808080" stroke="black" stroke-width="0.05" />
<rect x="23" y="29" width="1" height="1" fill="#808080" stroke="black" stroke-width="0.05" />
<rect x="23" y="30" width="1" height="1" fill="#808080" stroke="black" stroke-width="0.05" />
<rect x="24" y="1" width="1" height="1" fill="#808080" stroke="black" stroke-width="0.05" />
<rect x="24" y="11" width="1" height="1" fill="#808080" stroke="black" stroke-width="0.05" />
<rect x="24" y="12" width="1" height="1" fill="#808080" stroke="black" stroke-width="0.05" />
<rect x="24" y="13" width="1" height="1" fill="#808080" stroke="black" stroke-width="0.05" />
<rect x="24" y="20" width="1" height="1" fill="#808080" stroke="black" stroke-width="0.05" />
<rect x="24" y="21" width="1" height="1" fill="#808080" stroke="black" stroke-width="0.05" />
<rect x="24" y="28" width="1" height="1" fill="#808080" stroke="black" stroke-width="0.05" />
<rect x="24" y="29" width="1" height="1" fill="#808080" stroke="black" stroke-width="0.05" />
<rect x="24" y="30" width="1" height="1" fill="#808080" stroke="black" stroke-width="0.05" />
<rect x="25" y="1" width="1" height="1" fill="#808080" stroke="black" stroke-width="0.05" />
<rect x="25" y="2" width="1" height="1" fill="#808080" stroke="black" stroke-width="0.05" />
<rect x="25" y="3" width="1" height="1" fill="#808080" stroke="black" stroke-width="0.05" />
<rect x="25" y="4" width="1" height="1" fill="#808080" stroke="black" stroke-width="0.05" />
<rect x="25" y="5" width="1" height="1" fill="#808080" stroke="black" stroke-width="0.05" />
<rect x="25" y="6" width="1" height="1" fill="#808080" stroke="black" stroke-width="0.05" />
<rect x="25" y="7" width="1" height="1" fill="#808080" stroke="black" stroke-width="0.05" />
<rect x="25" y="10" width="1" height="1" fill="#808080" stroke="black" stroke-width="0.05" />
<rect x="25" y="11" width="1" height="1" fill="#808080" stroke="black" stroke-width="0.05" />
<rect x="25" y="12" width="1" height="1" fill="#808080" stroke="black" stroke-width="0.05" />
<rect x="25" y="13" width="1" height="1" fill="#808080" stroke="black" stroke-width="0.05" />
<rect x="25" y="19" width="1" height="1" fill="#808080" stroke="black" stroke-width="0.05" />
<rect x="25" y="20" width="1" height="1" fill="#808080" stroke="black" stroke-width="0.05" />
<rect x="25" y="21" width="1" height="1" fill="#808080" stroke="black" stroke-width="0.05" />
<rect x="25" y="28" width="1" height="1" fill="#808080" stroke="black" stroke-width="0.05" />
<rect x="25" y="29" width="1" height="1" fill="#808080" stroke="black" stroke-width="0.05" />
<rect x="25" y="30" width="1" height="1" fill="#808080" stroke="black" stroke-width="0.05" />
<rect x="26" y="1" width="1" height="1" fill="#808080" stroke="black" stroke-width="0.05" />
<rect x="26" y="2" width="1" height="1" fill="#808080" stroke="black" stroke-width="0.05" />
<rect x="26" y="3" width="1" height="1" fill="#808080" stroke="black" stroke-width="0.05" />
<rect x="26" y="4" width="1" height="1" fill="#808080" stroke="black" stroke-width="0.05" />
<rect x="26" y="5" width="1" height="1" fill="#808080" stroke="black" stroke-width="0.05" />
<rect x="26" y="6" width="1" height="1" fill="#808080" stroke="black" stroke-width="0.05" />
<rect x="26" y="7" width="1" height="1" fill="#808080" stroke="black" stroke-width="0.05" />
<rect x="26" y="8" width="1" height="1" fill="#808080" stroke="black" stroke-width="0.05" />
<rect x="26" y="9" width="1" height="1" fill="#808080" stroke="black" stroke-width="0.05" />
<rect x="26" y="10" width="1" height="1" fill="#808080" stroke="black" stroke-width="0.05" />
<rect x="26" y="11" width="1" height="1" fill="#808080" stroke="black" stroke-width="0.05" />
<rect x="26" y="20" width="1" height="1" fill="#808080" stroke="black" stroke-width="0.05" />
<rect x="26" y="21" width="1" height="1" fill="#808080" stroke="black" stroke-width="0.05" />
<rect x="26" y="28" width="1" height="1" fill="#808080" stroke="black" stroke-width="0.05" />
<rect x="26" y="29" width="1" height="1" fill="#808080" stroke="black" stroke-width="0.05" />
<rect x="26" y="30" width="1" height="1" fill="#808080" stroke="black" stroke-width="0.05" />
<rect x="27" y="1" width="1" height="1" fill="#808080" stroke="black" stroke-width="0.05" />
<rect x="27" y="2" width="1" height="1" fill="#808080" stroke="black" stroke-width="0.05" />
<rect x="27" y="3" width="1" height="1" fill="#808080" stroke="black" stroke-width="0.05" />
<rect x="27" y="4" width="1" height="1" fill="#808080" stroke="black" stroke-width="0.05" />
<rect x="27" y="5" width="1" height="1" fill="#808080" stroke="black" stroke-width="0.05" />
<rect x="27" y="6" width="1" height="1" fill="#808080" stroke="black" stroke-width="0.05" />
<rect x="27" y="7" width="1" height="1" fill="#808080" stroke="black" stroke-width="0.05" />
<rect x="27" y="8" width="1" height="1" fill="#808080" stroke="black" stroke-width="0.05" />
<rect x="27" y="9" width="1" height="1" fill="#808080" stroke="black" stroke-width="0.05" />
<rect x="27" y="13" width="1" height="1" fill="#808080" stroke="black" stroke-width="0.05" />
<rect x="27" y="28" width="1" height="1" fill="#808080" stroke="black" stroke-width="0.05" />
<rect x="27" y="29" width="1" height="1" fill="#808080" stroke="black" stroke-width="0.05" />
<rect x="27" y="30" width="1" height="1" fill="#808080" stroke="black" stroke-width="0.05" />
<rect x="28" y="1" width="1" height="1" fill="#808080" stroke="black" stroke-width="0.05" />
<rect x="28" y="2" width="1" height="1" fill="#808080" stroke="black" stroke-width="0.05" />
<rect x="28" y="3" width="1" height="1" fill="#808080" stroke="black" stroke-width="0.05" />
<rect x="28" y="4" width="1" height="1" fill="#808080" stroke="black" stroke-width="0.05" />
<rect x="28" y="5" width="1" height="1" fill="#808080" stroke="black" stroke-width="0.05" />
<rect x="28" y="6" width="1" height="1" fill="#808080" stroke="black" stroke-width="0.05" />
<rect x="28" y="7" width="1" height="1" fill="#808080" stroke="black" stroke-width="0.05" />
<rect x="28" y="8" width="1" height="1" fill="#808080" stroke="black" stroke-width="0.05" />
<rect x="28" y="13" width="1" height="1" fill="#808080" stroke="black" stroke-width="0.05" />
<rect x="28" y="14" width="1" height="1" fill="#808080" stroke="black" stroke-width="0.05" />
<rect x="28" y="15" width="1" height="1" fill="#808080" stroke="black" stroke-width="0.05" />
<rect x="28" y="29" width="1" height="1" fill="#808080" stroke="black" stroke-width="0.05" />
<rect x="28" y="30" width="1" height="1" fill="#808080" stroke="black" stroke-width="0.05" />
<rect x="29" y="1" width="1" height="1" fill="#808080" stroke="black" stroke-width="0.05" />
<rect x="29" y="2" width="1" height="1" fill="#808080" stroke="black" stroke-width="0.05" />
<rect x="29" y="3" width="1" height="1" fill="#808080" stroke="black" stroke-width="0.05" />
<rect x="29" y="4" width="1" height="1" fill="#808080" stroke="black" stroke-width="0.05" />
<rect x="29" y="5" width="1" height="1" fill="#808080" stroke="black" stroke-width="0.05" />
<rect x="29" y="6" width="1" height="1" fill="#808080" stroke="black" stroke-width="0.05" />
<rect x="29" y="7" width="1" height="1" fill="#808080" stroke="black" stroke-width="0.05" />
<rect x="29" y="8" width="1" height="1" fill="#808080" stroke="black" stroke-width="0.05" />
<rect x="29" y="9" width="1" height="1" fill="#808080" stroke="black" stroke-width="0.05" />
<rect x="29" y="11" width="1" height="1" fill="#808080" stroke="black" stroke-width="0.05" />
<rect x="29" y="12" width="1" height="1" fill="#808080" stroke="black" stroke-width="0.05" />
<rect x="29" y="13" width="1" height="1" fill="#808080" stroke="black" stroke-width="0.05" />
<rect x="29" y="14" width="1" height="1" fill="#808080" stroke="black" stroke-width="0.05" />
<rect x="29" y="15" width="1" height="1" fill="#808080" stroke="black" stroke-width="0.05" />
<rect x="29" y="16" width="1" height="1" fill="#808080" stroke="black" stroke-width="0.05" />
<rect x="29" y="30" width="1" height="1" fill="#808080" stroke="black" stroke-width="0.05" />
<rect x="30" y="1" width="1" height="1" fill="#808080" stroke="black" stroke-width="0.05" />
<rect x="30" y="2" width="1" height="1" fill="#808080" stroke="black" stroke-width="0.05" />
<rect x="30" y="3" width="1" height="1" fill="#808080" stroke="black" stroke-width="0.05" />
<rect x="30" y="4" width="1" height="1" fill="#808080" stroke="black" stroke-width="0.05" />
<rect x="30" y="5" width="1" height="1" fill="#808080" stroke="black" stroke-width="0.05" />
<rect x="30" y="6" width="1" height="1" fill="#808080" stroke="black" stroke-width="0.05" />
<rect x="30" y="7" width="1" height="1" fill="#808080" stroke="black" stroke-width="0.05" />
<rect x="30" y="8" width="1" height="1" fill="#808080" stroke="black" stroke-width="0.05" />
<rect x="30" y="9" width="1" height="1" fill="#808080" stroke="black" stroke-width="0.05" />
<rect x="30" y="10" width="1" height="1" fill="#808080" stroke="black" stroke-width="0.05" />
<rect x="30" y="11" width="1" height="1" fill="#808080" stroke="black" stroke-width="0.05" />
<rect x="30" y="12" width="1" height="1" fill="#808080" stroke="black" stroke-width="0.05" />
<rect x="30" y="13" width="1" height="1" fill="#808080" stroke="black" stroke-width="0.05" />
<rect x="30" y="14" width="1" height="1" fill="#808080" stroke="black" stroke-width="0.05" />
<rect x="30" y="15" width="1" height="1" fill="#808080" stroke="black" stroke-width="0.05" />
<rect x="30" y="16" width="1" height="1" fill="#808080" stroke="black" stroke-width="0.05" />
<rect x="30" y="17" width="1" height="1" fill="#808080" stroke="black" stroke-width="0.05" />
<rect x="30" y="18" width="1" height="1" fill="#808080" stroke="black" stroke-width="0.05" />
<rect x="30" y="19" width="1" height="1" fill="#808080" stroke="black" stroke-width="0.05" />
<rect x="30" y="22" width="1" height="1" fill="#808080" stroke="black" stroke-width="0.05" />
<rect x="30" y="23" width="1" height="1" fill="#808080" stroke="black" stroke-width="0.05" />
<rect x="30" y="24" width="1" height="1" fill="#808080" stroke="black" stroke-width="0.05" />
<rect x="30" y="25" width="1" height="1" fill="#808080" stroke="black" stroke-width="0.05" />
<rect x="30" y="29" width="1" height="1" fill="#808080" stroke="black" stroke-width="0.05" />
<rect x="30" y="30" width="1" height="1" fill="#808080" stroke="black" stroke-width="0.05" />
<rect x="12" y="14" width="1" height="1" stroke="black" stroke-width="0.0" fill-opacity="0.1" style="stroke: #000000; fill: url(#pattern_XDotV);" />
<rect x="10" y="13" width="1" height="1" stroke="black" stroke-width="0.0" fill-opacity="0.1" style="stroke: #000000; fill: url(#pattern_XDotV);" />
<rect x="12" y="13" width="1" height="1" stroke="black" stroke-width="0.0" fill-opacity="0.1" style="stroke: #000000; fill: url(#pattern_XDotV);" />
<rect x="11" y="13" width="1" height="1" stroke="black" stroke-width="0.0" fill-opacity="0.1" style="stroke: #000000; fill: url(#pattern_XDotV);" />
<rect x="12" y="12" width="1" height="1" stroke="black" stroke-width="0.0" fill-opacity="0.1" style="stroke: #000000; fill: url(#pattern_XDotV);" />
</svg>