<svg xmlns="http://www.w3.org/2000/svg" version="1.1" baseProfile="full" width="32" height="32">
<defs>
        <pattern id="pattern_XDotV" patternUnits="userSpaceOnUse" width="0.4" height="0.4" patternTransform="rotate(45)">
            <line x1="0" y1="0" x2="0" y2="1" stroke="#FF0000" stroke-width="0.5" />
        </pattern>
    </defs>
<rect x="24" y="21" width="1" height="1" fill="#ffff00" stroke="black" stroke-width="0.05" />
<rect x="23" y="4" width="1" height="1" fill="#ff0000" stroke="black" stroke-width="0.05" />
<rect x="14" y="25" width="1" height="1" fill="#ff0000" stroke="black" stroke-width="0.05" />
<rect x="10" y="23" width="1" height="1" fill="#ff0000" stroke="black" stroke-width="0.05" />
<rect x="4" y="8" width="1" height="1" fill="#ffff00" stroke="black" stroke-width="0.05" />
<rect x="1" y="10" width="1" height="1" fill="#808080" stroke="black" stroke-width="0.05" />
<rect x="1" y="17" width="1" height="1" fill="#808080" stroke="black" stroke-width="0.05" />
<rect x="1" y="18" width="1" height="1" fill="#808080" stroke="black" stroke-width="0.05" />
<rect x="1" y="23" width="1" height="1" fill="#808080" stroke="black" stroke-width="0.05" />
<rect x="1" y="24" width="1" height="1" fill="#808080" stroke="black" stroke-width="0.05" />
<rect x="1" y="26" width="1" height="1" fill="#808080" stroke="black" stroke-width="0.05" />
<rect x="1" y="30" width="1" height="1" fill="#808080" stroke="black" stroke-width="0.05" />
<rect x="2" y="1" width="1" height="1" fill="#808080" stroke="black" stroke-width="0.05" />
<rect x="2" y="3" width="1" height="1" fill="#808080" stroke="black" stroke-width="0.05" />
<rect x="2" y="10" width="1" height="1" fill="#808080" stroke="black" stroke-width="0.05" />
<rect x="2" y="11" width="1" height="1" fill="#808080" stroke="black" stroke-width="0.05" />
<rect x="2" y="13" width="1" height="1" fill="#808080" stroke="black" stroke-width="0.05" />
<rect x="2" y="15" width="1" height="1" fill="#808080" stroke="black" stroke-width="0.05" />
<rect x="2" y="16" width="1" height="1" fill="#808080" stroke="black" stroke-width="0.05" />
<rect x="2" y="26" width="1" height="1" fill="#808080" stroke="black" stroke-width="0.05" />
<rect x="2" y="28" width="1" height="1" fill="#808080" stroke="black" stroke-width="0.05" />
<rect x="3" y="3" width="1" height="1" fill="#808080" stroke="black" stroke-width="0.05" />
<rect x="3" y="13" width="1" height="1" fill="#808080" stroke="black" stroke-width="0.05" />
<rect x="3" y="15" width="1" height="1" fill="#808080" stroke="black" stroke-width="0.05" />
<rect x="3" y="18" width="1" height="1" fill="#808080" stroke="black" stroke-width="0.05" />
<rect x="3" y="24" width="1" height="1" fill="#808080" stroke="black" stroke-width="0.05" />
<rect x="3" y="25" width="1" height="1" fill="#808080" stroke="black" stroke-width="0.05" />
<rect x="3" y="26" width="1" height="1" fill="#808080" stroke="black" stroke-width="0.05" />
<rect x="3" y="28" width="1" height="1" fill="#808080" stroke="black" stroke-width="0.05" />
<rect x="3" y="29" width="1" height="1" fill="#808080" stroke="black" stroke-width="0.05" />
<rect x="4" y="2" width="1" height="1" fill="#808080" stroke="black" stroke-width="0.05" />
<rect x="4" y="3" width="1" height="1" fill="#808080" stroke="black" stroke-width="0.05" />
<rect x="4" y="14" width="1" height="1" fill="#808080" stroke="black" stroke-width="0.05" />
<rect x="4" y="15" width="1" height="1" fill="#808080" stroke="black" stroke-width="0.05" />
<rect x="4" y="17" width="1" height="1" fill="#808080" stroke="black" stroke-width="0.05" />
<rect x="4" y="18" width="1" height="1" fill="#808080" stroke="black" stroke-width="0.05" />
<rect x="4" y="19" width="1" height="1" fill="#808080" stroke="black" stroke-width="0.05" />
<rect x="4" y="24" width="1" height="1" fill="#808080" stroke="black" stroke-width="0.05" />
<rect x="4" y="28" width="1" height="1" fill="#808080" stroke="black" stroke-width="0.05" />
<rect x="5" y="3" width="1" height="1" fill="#808080" stroke="black" stroke-width="0.05" />
<rect x="5" y="19" width="1" height="1" fill="#808080" stroke="black" stroke-width="0.05" />
<rect x="5" y="24" width="1" height="1" fill="#808080" stroke="black" stroke-width="0.05" />
<rect x="5" y="26" width="1" height="1" fill="#808080" stroke="black" stroke-width="0.05" />
<rect x="5" y="27" width="1" height="1" fill="#808080" stroke="black" stroke-width="0.05" />
<rect x="5" y="28" width="1" height="1" fill="#808080" stroke="black" stroke-width="0.05" />
<rect x="5" y="30" width="1" height="1" fill="#808080" stroke="black" stroke-width="0.05" />
<rect x="6" y="1" width="1" height="1" fill="#808080" stroke="black" stroke-width="0.05" />
<rect x="6" y="3" width="1" height="1" fill="#808080" stroke="black" stroke-width="0.05" />
<rect x="6" y="13" width="1" height="1" fill="#808080" stroke="black" stroke-width="0.05" />
<rect x="6" y="15" width="1" height="1" fill="#808080" stroke="black" stroke-width="0.05" />
<rect x="6" y="16" width="1" height="1" fill="#808080" stroke="black" stroke-width="0.05" />
<rect x="6" y="17" width="1" height="1" fill="#808080" stroke="black" stroke-width="0.05" />
<rect x="6" y="18" width="1" height="1" fill="#808080" stroke="black" stroke-width="0.05" />
<rect x="6" y="21" width="1" height="1" fill="#808080" stroke="black" stroke-width="0.05" />
<rect x="6" y="22" width="1" height="1" fill="#808080" stroke="black" stroke-width="0.05" />
<rect x="6" y="23" width="1" height="1" fill="#808080" stroke="black" stroke-width="0.05" />
<rect x="6" y="24" width="1" height="1" fill="#808080" stroke="black" stroke-width="0.05" />
<rect x="6" y="26" width="1" height="1" fill="#808080" stroke="black" stroke-width="0.05" />
<rect x="6" y="27" width="1" height="1" fill="#808080" stroke="black" stroke-width="0.05" />
<rect x="7" y="1" width="1" height="1" fill="#808080" stroke="black" stroke-width="0.05" />
<rect x="7" y="3" width="1" height="1" fill="#808080" stroke="black" stroke-width="0.05" />
<rect x="7" y="6" width="1" height="1" fill="#808080" stroke="black" stroke-width="0.05" />
<rect x="7" y="13" width="1" height="1" fill="#808080" stroke="black" stroke-width="0.05" />
<rect x="7" y="18" width="1" height="1" fill="#808080" stroke="black" stroke-width="0.05" />
<rect x="7" y="20" width="1" height="1" fill="#808080" stroke="black" stroke-width="0.05" />
<rect x="7" y="21" width="1" height="1" fill="#808080" stroke="black" stroke-width="0.05" />
<rect x="7" y="26" width="1" height="1" fill="#808080" stroke="black" stroke-width="0.05" />
<rect x="7" y="29" width="1" height="1" fill="#808080" stroke="black" stroke-width="0.05" />
<rect x="8" y="1" width="1" height="1" fill="#808080" stroke="black" stroke-width="0.05" />
<rect x="8" y="3" width="1" height="1" fill="#808080" stroke="black" stroke-width="0.05" />
<rect x="8" y="5" width="1" height="1" fill="#808080" stroke="black" stroke-width="0.05" />
<rect x="8" y="6" width="1" height="1" fill="#808080" stroke="black" stroke-width="0.05" />
<rect x="8" y="13" width="1" height="1" fill="#808080" stroke="black" stroke-width="0.05" />
<rect x="8" y="14" width="1" height="1" fill="#808080" stroke="black" stroke-width="0.05" />
<rect x="8" y="15" width="1" height="1" fill="#808080" stroke="black" stroke-width="0.05" />
<rect x="8" y="16" width="1" height="1" fill="#808080" stroke="black" stroke-width="0.05" />
<rect x="8" y="17" width="1" height="1" fill="#808080" stroke="black" stroke-width="0.05" />
<rect x="8" y="29" width="1" height="1" fill="#808080" stroke="black" stroke-width="0.05" />
<rect x="9" y="1" width="1" height="1" fill="#808080" stroke="black" stroke-width="0.05" />
<rect x="10" y="1" width="1" height="1" fill="#808080" stroke="black" stroke-width="0.05" />
<rect x="10" y="3" width="1" height="1" fill="#808080" stroke="black" stroke-width="0.05" />
<rect x="10" y="11" width="1" height="1" fill="#808080" stroke="black" stroke-width="0.05" />
<rect x="10" y="12" width="1" height="1" fill="#808080" stroke="black" stroke-width="0.05" />
<rect x="10" y="13" width="1" height="1" fill="#808080" stroke="black" stroke-width="0.05" />
<rect x="10" y="14" width="1" height="1" fill="#808080" stroke="black" stroke-width="0.05" />
<rect x="10" y="15" width="1" height="1" fill="#808080" stroke="black" stroke-width="0.05" />
<rect x="10" y="16" width="1" height="1" fill="#808080" stroke="black" stroke-width="0.05" />
<rect x="10" y="30" width="1" height="1" fill="#808080" stroke="black" stroke-width="0.05" />
<rect x="11" y="1" width="1" height="1" fill="#808080" stroke="black" stroke-width="0.05" />
<rect x="11" y="3" width="1" height="1" fill="#808080" stroke="black" stroke-width="0.05" />
<rect x="11" y="16" width="1" height="1" fill="#808080" stroke="black" stroke-width="0.05" />
<rect x="11" y="30" width="1" height="1" fill="#808080" stroke="black" stroke-width="0.05" />
<rect x="12" y="1" width="1" height="1" fill="#808080" stroke="black" stroke-width="0.05" />
<rect x="12" y="3" width="1" height="1" fill="#808080" stroke="black" stroke-width="0.05" />
<rect x="12" y="14" width="1" height="1" fill="#808080" stroke="black" stroke-width="0.05" />
<rect x="12" y="16" width="1" height="1" fill="#808080" stroke="black" stroke-width="0.05" />
<rect x="12" y="19" width="1" height="1" fill="#808080" stroke="black" stroke-width="0.05" />
<rect x="12" y="20" width="1" height="1" fill="#808080" stroke="black" stroke-width="0.05" />
<rect x="13" y="1" width="1" height="1" fill="#808080" stroke="black" stroke-width="0.05" />
<rect x="13" y="14" width="1" height="1" fill="#808080" stroke="black" stroke-width="0.05" />
<rect x="13" y="17" width="1" height="1" fill="#808080" stroke="black" stroke-width="0.05" />
<rect x="13" y="19" width="1" height="1" fill="#808080" stroke="black" stroke-width="0.05" />
<rect x="13" y="20" width="1" height="1" fill="#808080" stroke="black" stroke-width="0.05" />
<rect x="13" y="29" width="1" height="1" fill="#808080" stroke="black" stroke-width="0.05" />
<rect x="14" y="2" width="1" height="1" fill="#808080" stroke="black" stroke-width="0.05" />
<rect x="14" y="3" width="1" height="1" fill="#808080" stroke="black" stroke-width="0.05" />
<rect x="14" y="14" width="1" height="1" fill="#808080" stroke="black" stroke-width="0.05" />
<rect x="14" y="15" width="1" height="1" fill="#808080" stroke="black" stroke-width="0.05" />
<rect x="14" y="17" width="1" height="1" fill="#808080" stroke="black" stroke-width="0.05" />
<rect x="14" y="19" width="1" height="1" fill="#808080" stroke="black" stroke-width="0.05" />
<rect x="14" y="20" width="1" height="1" fill="#808080" stroke="black" stroke-width="0.05" />
<rect x="14" y="28" width="1" height="1" fill="#808080" stroke="black" stroke-width="0.05" />
<rect x="14" y="29" width="1" height="1" fill="#808080" stroke="black" stroke-width="0.05" />
<rect x="15" y="2" width="1" height="1" fill="#808080" stroke="black" stroke-width="0.05" />
<rect x="15" y="6" width="1" height="1" fill="#808080" stroke="black" stroke-width="0.05" />
<rect x="15" y="7" width="1" height="1" fill="#808080" stroke="black" stroke-width="0.05" />
<rect x="15" y="8" width="1" height="1" fill="#808080" stroke="black" stroke-width="0.05" />
<rect x="15" y="9" width="1" height="1" fill="#808080" stroke="black" stroke-width="0.05" />
<rect x="15" y="15" width="1" height="1" fill="#808080" stroke="black" stroke-width="0.05" />
<rect x="15" y="17" width="1" height="1" fill="#808080" stroke="black" stroke-width="0.05" />
<rect x="16" y="2" width="1" height="1" fill="#808080" stroke="black" stroke-width="0.05" />
<rect x="16" y="3" width="1" height="1" fill="#808080" stroke="black" stroke-width="0.05" />
<rect x="16" y="4" width="1" height="1" fill="#808080" stroke="black" stroke-width="0.05" />
<rect x="16" y="9" width="1" height="1" fill="#808080" stroke="black" stroke-width="0.05" />
<rect x="16" y="11" width="1" height="1" fill="#808080" stroke="black" stroke-width="0.05" />
<rect x="16" y="13" width="1" height="1" fill="#808080" stroke="black" stroke-width="0.05" />
<rect x="16" y="14" width="1" height="1" fill="#808080" stroke="black" stroke-width="0.05" />
<rect x="16" y="15" width="1" height="1" fill="#808080" stroke="black" stroke-width="0.05" />
<rect x="16" y="17" width="1" height="1" fill="#808080" stroke="black" stroke-width="0.05" />
<rect x="16" y="18" width="1" height="1" fill="#808080" stroke="black" stroke-width="0.05" />
<rect x="16" y="19" width="1" height="1" fill="#808080" stroke="black" stroke-width="0.05" />
<rect x="16" y="27" width="1" height="1" fill="#808080" stroke="black" stroke-width="0.05" />
<rect x="16" y="28" width="1" height="1" fill="#808080" stroke="black" stroke-width="0.05" />
<rect x="16" y="30" width="1" height="1" fill="#808080" stroke="black" stroke-width="0.05" />
<rect x="17" y="5" width="1" height="1" fill="#808080" stroke="black" stroke-width="0.05" />
<rect x="17" y="6" width="1" height="1" fill="#808080" stroke="black" stroke-width="0.05" />
<rect x="17" y="8" width="1" height="1" fill="#808080" stroke="black" stroke-width="0.05" />
<rect x="17" y="9" width="1" height="1" fill="#808080" stroke="black" stroke-width="0.05" />
<rect x="17" y="11" width="1" height="1" fill="#808080" stroke="black" stroke-width="0.05" />
<rect x="17" y="18" width="1" height="1" fill="#808080" stroke="black" stroke-width="0.05" />
<rect x="17" y="21" width="1" height="1" fill="#808080" stroke="black" stroke-width="0.05" />
<rect x="17" y="23" width="1" height="1" fill="#808080" stroke="black" stroke-width="0.05" />
<rect x="17" y="24" width="1" height="1" fill="#808080" stroke="black" stroke-width="0.05" />
<rect x="17" y="28" width="1" height="1" fill="#808080" stroke="black" stroke-width="0.05" />
<rect x="18" y="5" width="1" height="1" fill="#808080" stroke="black" stroke-width="0.05" />
<rect x="18" y="6" width="1" height="1" fill="#808080" stroke="black" stroke-width="0.05" />
<rect x="18" y="8" width="1" height="1" fill="#808080" stroke="black" stroke-width="0.05" />
<rect x="18" y="9" width="1" height="1" fill="#808080" stroke="black" stroke-width="0.05" />
<rect x="18" y="11" width="1" height="1" fill="#808080" stroke="black" stroke-width="0.05" />
<rect x="18" y="12" width="1" height="1" fill="#808080" stroke="black" stroke-width="0.05" />
<rect x="18" y="17" width="1" height="1" fill="#808080" stroke="black" stroke-width="0.05" />
<rect x="18" y="18" width="1" height="1" fill="#808080" stroke="black" stroke-width="0.05" />
<rect x="18" y="20" width="1" height="1" fill="#808080" stroke="black" stroke-width="0.05" />
<rect x="18" y="21" width="1" height="1" fill="#808080" stroke="black" stroke-width="0.05" />
<rect x="18" y="26" width="1" height="1" fill="#808080" stroke="black" stroke-width="0.05" />
<rect x="18" y="28" width="1" height="1" fill="#808080" stroke="black" stroke-width="0.05" />
<rect x="18" y="29" width="1" height="1" fill="#808080" stroke="black" stroke-width="0.05" />
<rect x="18" y="30" width="1" height="1" fill="#808080" stroke="black" stroke-width="0.05" />
<rect x="19" y="6" width="1" height="1" fill="#808080" stroke="black" stroke-width="0.05" />
<rect x="19" y="9" width="1" height="1" fill="#808080" stroke="black" stroke-width="0.05" />
<rect x="19" y="11" width="1" height="1" fill="#808080" stroke="black" stroke-width="0.05" />
<rect x="19" y="12" width="1" height="1" fill="#808080" stroke="black" stroke-width="0.05" />
<rect x="19" y="17" width="1" height="1" fill="#808080" stroke="black" stroke-width="0.05" />
<rect x="19" y="18" width="1" height="1" fill="#808080" stroke="black" stroke-width="0.05" />
<rect x="19" y="20" width="1" height="1" fill="#808080" stroke="black" stroke-width="0.05" />
<rect x="19" y="21" width="1" height="1" fill="#808080" stroke="black" stroke-width="0.05" />
<rect x="19" y="23" width="1" height="1" fill="#808080" stroke="black" stroke-width="0.05" />
<rect x="19" y="24" width="1" height="1" fill="#808080" stroke="black" stroke-width="0.05" />
<rect x="19" y="25" width="1" height="1" fill="#808080" stroke="black" stroke-width="0.05" />
<rect x="19" y="26" width="1" height="1" fill="#808080" stroke="black" stroke-width="0.05" />
<rect x="20" y="4" width="1" height="1" fill="#808080" stroke="black" stroke-width="0.05" />
<rect x="20" y="6" width="1" height="1" fill="#808080" stroke="black" stroke-width="0.05" />
<rect x="20" y="7" width="1" height="1" fill="#808080" stroke="black" stroke-width="0.05" />
<rect x="20" y="14" width="1" height="1" fill="#808080" stroke="black" stroke-width="0.05" />
<rect x="20" y="17" width="1" height="1" fill="#808080" stroke="black" stroke-width="0.05" />
<rect x="20" y="20" width="1" height="1" fill="#808080" stroke="black" stroke-width="0.05" />
<rect x="20" y="23" width="1" height="1" fill="#808080" stroke="black" stroke-width="0.05" />
<rect x="20" y="24" width="1" height="1" fill="#808080" stroke="black" stroke-width="0.05" />
<rect x="20" y="26" width="1" height="1" fill="#808080" stroke="black" stroke-width="0.05" />
<rect x="20" y="27" width="1" height="1" fill="#808080" stroke="black" stroke-width="0.05" />
<rect x="20" y="28" width="1" height="1" fill="#808080" stroke="black" stroke-width="0.05" />
<rect x="20" y="29" width="1" height="1" fill="#808080" stroke="black" stroke-width="0.05" />
<rect x="21" y="4" width="1" height="1" fill="#808080" stroke="black" stroke-width="0.05" />
<rect x="21" y="5" width="1" height="1" fill="#808080" stroke="black" stroke-width="0.05" />
<rect x="21" y="6" width="1" height="1" fill="#808080" stroke="black" stroke-width="0.05" />
<rect x="21" y="7" width="1" height="1" fill="#808080" stroke="black" stroke-width="0.05" />
<rect x="21" y="13" width="1" height="1" fill="#808080" stroke="black" stroke-width="0.05" />
<rect x="21" y="14" width="1" height="1" fill="#808080" stroke="black" stroke-width="0.05" />
<rect x="21" y="15" width="1" height="1" fill="#808080" stroke="black" stroke-width="0.05" />
<rect x="21" y="19" width="1" height="1" fill="#808080" stroke="black" stroke-width="0.05" />
<rect x="21" y="20" width="1" height="1" fill="#808080" stroke="black" stroke-width="0.05" />
<rect x="21" y="22" width="1" height="1" fill="#808080" stroke="black" stroke-width="0.05" />
<rect x="21" y="23" width="1" height="1" fill="#808080" stroke="black" stroke-width="0.05" />
<rect x="21" y="29" width="1" height="1" fill="#808080" stroke="black" stroke-width="0.05" />
<rect x="22" y="7" width="1" height="1" fill="#808080" stroke="black" stroke-width="0.05" />
<rect x="22" y="15" width="1" height="1" fill="#808080" stroke="black" stroke-width="0.05" />
<rect x="22" y="17" width="1" height="1" fill="#808080" stroke="black" stroke-width="0.05" />
<rect x="22" y="18" width="1" height="1" fill="#808080" stroke="black" stroke-width="0.05" />
<rect x="22" y="25" width="1" height="1" fill="#808080" stroke="black" stroke-width="0.05" />
<rect x="22" y="27" width="1" height="1" fill="#808080" stroke="black" stroke-width="0.05" />
<rect x="22" y="28" width="1" height="1" fill="#808080" stroke="black" stroke-width="0.05" />
<rect x="22" y="29" width="1" height="1" fill="#808080" stroke="black" stroke-width="0.05" />
<rect x="23" y="1" width="1" height="1" fill="#808080" stroke="black" stroke-width="0.05" />
<rect x="23" y="7" width="1" height="1" fill="#808080" stroke="black" stroke-width="0.05" />
<rect x="23" y="13" width="1" height="1" fill="#808080" stroke="black" stroke-width="0.05" />
<rect x="23" y="15" width="1" height="1" fill="#808080" stroke="black" stroke-width="0.05" />
<rect x="23" y="17" width="1" height="1" fill="#808080" stroke="black" stroke-width="0.05" />
<rect x="23" y="18" width="1" height="1" fill="#808080" stroke="black" stroke-width="0.05" />
<rect x="23" y="19" width="1" height="1" fill="#808080" stroke="black" stroke-width="0.05" />
<rect x="23" y="23" width="1" height="1" fill="#808080" stroke="black" stroke-width="0.05" />
<rect x="23" y="25" width="1" height="1" fill="#808080" stroke="black" stroke-width="0.05" />
<rect x="23" y="27" width="1" height="1" fill="#808080" stroke="black" stroke-width="0.05" />
<rect x="24" y="15" width="1" height="1" fill="#808080" stroke="black" stroke-width="0.05" />
<rect x="24" y="17" width="1" height="1" fill="#808080" stroke="black" stroke-width="0.05" />
<rect x="24" y="18" width="1" height="1" fill="#808080" stroke="black" stroke-width="0.05" />
<rect x="24" y="19" width="1" height="1" fill="#808080" stroke="black" stroke-width="0.05" />
<rect x="24" y="23" width="1" height="1" fill="#808080" stroke="black" stroke-width="0.05" />
<rect x="24" y="24" width="1" height="1" fill="#808080" stroke="black" stroke-width="0.05" />
<rect x="24" y="25" width="1" height="1" fill="#808080" stroke="black" stroke-width="0.05" />
<rect x="24" y="27" width="1" height="1" fill="#808080" stroke="black" stroke-width="0.05" />
<rect x="24" y="28" width="1" height="1" fill="#808080" stroke="black" stroke-width="0.05" />
<rect x="24" y="30" width="1" height="1" fill="#808080" stroke="black" stroke-width="0.05" />
<rect x="25" y="1" width="1" height="1" fill="#808080" stroke="black" stroke-width="0.05" />
<rect x="25" y="3" width="1" height="1" fill="#808080" stroke="black" stroke-width="0.05" />
<rect x="25" y="4" width="1" height="1" fill="#808080" stroke="black" stroke-width="0.05" />
<rect x="25" y="5" width="1" height="1" fill="#808080" stroke="black" stroke-width="0.05" />
<rect x="25" y="6" width="1" height="1" fill="#808080" stroke="black" stroke-width="0.05" />
<rect x="25" y="7" width="1" height="1" fill="#808080" stroke="black" stroke-width="0.05" />
<rect x="25" y="10" width="1" height="1" fill="#808080" stroke="black" stroke-width="0.05" />
<rect x="25" y="11" width="1" height="1" fill="#808080" stroke="black" stroke-width="0.05" />
<rect x="25" y="14" width="1" height="1" fill="#808080" stroke="black" stroke-width="0.05" />
<rect x="25" y="15" width="1" height="1" fill="#808080" stroke="black" stroke-width="0.05" />
<rect x="25" y="18" width="1" height="1" fill="#808080" stroke="black" stroke-width="0.05" />
<rect x="25" y="26" width="1" height="1" fill="#808080" stroke="black" stroke-width="0.05" />
<rect x="25" y="27" width="1" height="1" fill="#808080" stroke="black" stroke-width="0.05" />
<rect x="26" y="1" width="1" height="1" fill="#808080" stroke="black" stroke-width="0.05" />
<rect x="26" y="5" width="1" height="1" fill="#808080" stroke="black" stroke-width="0.05" />
<rect x="26" y="7" width="1" height="1" fill="#808080" stroke="black" stroke-width="0.05" />
<rect x="26" y="9" width="1" height="1" fill="#808080" stroke="black" stroke-width="0.05" />
<rect x="26" y="13" width="1" height="1" fill="#808080" stroke="black" stroke-width="0.05" />
<rect x="26" y="15" width="1" height="1" fill="#808080" stroke="black" stroke-width="0.05" />
<rect x="26" y="16" width="1" height="1" fill="#808080" stroke="black" stroke-width="0.05" />
<rect x="26" y="20" width="1" height="1" fill="#808080" stroke="black" stroke-width="0.05" />
<rect x="26" y="21" width="1" height="1" fill="#808080" stroke="black" stroke-width="0.05" />
<rect x="26" y="22" width="1" height="1" fill="#808080" stroke="black" stroke-width="0.05" />
<rect x="26" y="23" width="1" height="1" fill="#808080" stroke="black" stroke-width="0.05" />
<rect x="26" y="24" width="1" height="1" fill="#808080" stroke="black" stroke-width="0.05" />
<rect x="26" y="29" width="1" height="1" fill="#808080" stroke="black" stroke-width="0.05" />
<rect x="27" y="3" width="1" height="1" fill="#808080" stroke="black" stroke-width="0.05" />
<rect x="27" y="7" width="1" height="1" fill="#808080" stroke="black" stroke-width="0.05" />
<rect x="27" y="9" width="1" height="1" fill="#808080" stroke="black" stroke-width="0.05" />
<rect x="27" y="11" width="1" height="1" fill="#808080" stroke="black" stroke-width="0.05" />
<rect x="27" y="12" width="1" height="1" fill="#808080" stroke="black" stroke-width="0.05" />
<rect x="27" y="13" width="1" height="1" fill="#808080" stroke="black" stroke-width="0.05" />
<rect x="27" y="15" width="1" height="1" fill="#808080" stroke="black" stroke-width="0.05" />
<rect x="27" y="16" width="1" height="1" fill="#808080" stroke="black" stroke-width="0.05" />
<rect x="27" y="17" width="1" height="1" fill="#808080" stroke="black" stroke-width="0.05" />
<rect x="27" y="18" width="1" height="1" fill="#808080" stroke="black" stroke-width="0.05" />
<rect x="27" y="19" width="1" height="1" fill="#808080" stroke="black" stroke-width="0.05" />
<rect x="27" y="20" width="1" height="1" fill="#808080" stroke="black" stroke-width="0.05" />
<rect x="27" y="22" width="1" height="1" fill="#808080" stroke="black" stroke-width="0.05" />
<rect x="27" y="24" width="1" height="1" fill="#808080" stroke="black" stroke-width="0.05" />
<rect x="27" y="25" width="1" height="1" fill="#808080" stroke="black" stroke-width="0.05" />
<rect x="27" y="26" width="1" height="1" fill="#808080" stroke="black" stroke-width="0.05" />
<rect x="27" y="27" width="1" height="1" fill="#808080" stroke="black" stroke-width="0.05" />
<rect x="27" y="28" width="1" height="1" fill="#808080" stroke="black" stroke-width="0.05" />
<rect x="27" y="29" width="1" height="1" fill="#808080" stroke="black" stroke-width="0.05" />
<rect x="28" y="2" width="1" height="1" fill="#808080" stroke="black" stroke-width="0.05" />
<rect x="28" y="3" width="1" height="1" fill="#808080" stroke="black" stroke-width="0.05" />
<rect x="28" y="5" width="1" height="1" fill="#808080" stroke="black" stroke-width="0.05" />
<rect x="28" y="7" width="1" height="1" fill="#808080" stroke="black" stroke-width="0.05" />
<rect x="28" y="9" width="1" height="1" fill="#808080" stroke="black" stroke-width="0.05" />
<rect x="28" y="11" width="1" height="1" fill="#808080" stroke="black" stroke-width="0.05" />
<rect x="28" y="13" width="1" height="1" fill="#808080" stroke="black" stroke-width="0.05" />
<rect x="28" y="15" width="1" height="1" fill="#808080" stroke="black" stroke-width="0.05" />
<rect x="28" y="22" width="1" height="1" fill="#808080" stroke="black" stroke-width="0.05" />
<rect x="28" y="26" width="1" height="1" fill="#808080" stroke="black" stroke-width="0.05" />
<rect x="29" y="3" width="1" height="1" fill="#808080" stroke="black" stroke-width="0.05" />
<rect x="29" y="4" width="1" height="1" fill="#808080" stroke="black" stroke-width="0.05" />
<rect x="29" y="5" width="1" height="1" fill="#808080" stroke="black" stroke-width="0.05" />
<rect x="29" y="9" width="1" height="1" fill="#808080" stroke="black" stroke-width="0.05" />
<rect x="29" y="11" width="1" height="1" fill="#808080" stroke="black" stroke-width="0.05" />
<rect x="29" y="13" width="1" height="1" fill="#808080" stroke="black" stroke-width="0.05" />
<rect x="29" y="15" width="1" height="1" fill="#808080" stroke="black" stroke-width="0.05" />
<rect x="29" y="16" width="1" height="1" fill="#808080" stroke="black" stroke-width="0.05" />
<rect x="29" y="18" width="1" height="1" fill="#808080" stroke="black" stroke-width="0.05" />
<rect x="29" y="20" width="1" height="1" fill="#808080" stroke="black" stroke-width="0.05" />
<rect x="29" y="21" width="1" height="1" fill="#808080" stroke="black" stroke-width="0.05" />
<rect x="29" y="22" width="1" height="1" fill="#808080" stroke="black" stroke-width="0.05" />
<rect x="29" y="24" width="1" height="1" fill="#808080" stroke="black" stroke-width="0.05" />
<rect x="29" y="26" width="1" height="1" fill="#808080" stroke="black" stroke-width="0.05" />
<rect x="29" y="28" width="1" height="1" fill="#808080" stroke="black" stroke-width="0.05" />
<rect x="29" y="29" width="1" height="1" fill="#808080" stroke="black" stroke-width="0.05" />
<rect x="29" y="30" width="1" height="1" fill="#808080" stroke="black" stroke-width="0.05" />
<rect x="30" y="1" width="1" height="1" fill="#808080" stroke="black" stroke-width="0.05" />
<rect x="30" y="6" width="1" height="1" fill="#808080" stroke="black" stroke-width="0.05" />
<rect x="30" y="7" width="1" height="1" fill="#808080" stroke="black" stroke-width="0.05" />
<rect x="30" y="11" width="1" height="1" fill="#808080" stroke="black" stroke-width="0.05" />
<rect x="30" y="18" width="1" height="1" fill="#808080" stroke="black" stroke-width="0.05" />
<rect x="30" y="24" width="1" height="1" fill="#808080" stroke="black" stroke-width="0.05" />
<rect x="12" y="8" width="1" height="1" stroke="black" stroke-width="0.0" fill-opacity="0.1" style="stroke: #000000; fill: url(#pattern_XDotV);" />
<rect x="11" y="9" width="1" height="1" stroke="black" stroke-width="0.0" fill-opacity="0.1" style="stroke: #000000; fill: url(#pattern_XDotV);" />
<rect x="11" y="8" width="1" height="1" stroke="black" stroke-width="0.0" fill-opacity="0.1" style="stroke: #000000; fill: url(#pattern_XDotV);" />
<rect x="12" y="7" width="1" height="1" stroke="black" stroke-width="0.0" fill-opacity="0.1" style="stroke: #000000; fill: url(#pattern_XDotV);" />
<rect x="11" y="7" width="1" height="1" stroke="black" stroke-width="0.0" fill-opacity="0.1" style="stroke: #000000; fill: url(#pattern_XDotV);" />
</svg>